<?xml version="1.0" encoding="UTF-8" standalone="no"?>
<svg
   width="403.33884"
   height="446.97363"
   viewBox="0 0 403.33884 446.97363"
   version="1.1"
   xml:space="preserve"
   style="clip-rule:evenodd;fill-rule:evenodd;stroke-linejoin:round;stroke-miterlimit:2"
   id="svg26"
   sodipodi:docname="light.svg"
   inkscape:version="1.4.3 (0d15f75042, 2025-12-25)"
   xmlns:inkscape="http://www.inkscape.org/namespaces/inkscape"
   xmlns:sodipodi="http://sodipodi.sourceforge.net/DTD/sodipodi-0.dtd"
   xmlns="http://www.w3.org/2000/svg"
   xmlns:svg="http://www.w3.org/2000/svg"><defs
     id="defs26" /><sodipodi:namedview
     id="namedview26"
     pagecolor="#ffffff"
     bordercolor="#000000"
     borderopacity="0.25"
     inkscape:showpageshadow="2"
     inkscape:pageopacity="0.0"
     inkscape:pagecheckerboard="0"
     inkscape:deskcolor="#d1d1d1"
     inkscape:zoom="1.3491499"
     inkscape:cx="97.839386"
     inkscape:cy="167.88349"
     inkscape:window-width="2556"
     inkscape:window-height="1352"
     inkscape:window-x="0"
     inkscape:window-y="86"
     inkscape:window-maximized="1"
     inkscape:current-layer="svg26" /><path
     d="m 67.800369,183.72016 c -0.936,-17.788 -3.975,-57.446 30.963,-100.674999 20.405001,-25.248 55.714001,-42.76 82.149001,-46.318 114.216,-15.373 190.156,101.485999 138.873,197.417999 -21.547,40.306 -51.276,44.253 -54.599,78.498 -1.53,15.767 0.865,17.16 2.11,17.885 10.357,6.024 11.304,18.569 4.833,27.126 -1.719,2.273 -0.541,2.45 1.019,4.828 2.211,3.372 7.824,17.541 -6.416,25.941 -6.488,3.827 7.87,27.785 -21.926,30.626 -4.247,0.405 -9.356,24.574 -32.034,27.2 -35.233,4.081 -43.524,-9.778 -50.921,-24.046 -2.377,-4.585 -3.592,-2.923 -8.788,-3.661 -8.641,-1.228 -12.363,-10.965 -15.624,-12.888 -1.047,-0.618 -8.386,-4.946 -9.78,-11.628 -2.355,-11.287 3.704,-16.157 4.558,-17.511 0.904,-1.434 -3.857,-5.743 -4.572,-9.3 -3.47,-17.258 10.529,-17.784 10.586,-24.646 0.269,-32.192 -0.055,-37.431 -6.014,-49.417 -11.982,-24.102 -54.663001,-36.335 -64.418001,-109.432 z"
     style="fill:#4e4d47"
     id="path1"
     inkscape:export-filename="light.svg"
     inkscape:export-xdpi="96"
     inkscape:export-ydpi="96" /><path
     d="m 217.91137,46.028161 c 105.278,15.793 147.175,142.727999 65.88,217.971999 -19.096,17.674 -23.989,22.675 -28.127,47.57 -0.48,2.888 -2.018,1.927 -55.22,2.069 -7.841,0.021 -50.426,-0.013 -50.527,-0.019 -5.928,-0.366 2.897,-21.595 -28.293,-47.9 -68.414001,-57.699 -60.644001,-177.094999 40.527,-214.323999 24.815,-9.131 51.311,-5.909 55.76,-5.368 z"
     style="fill:#f4d11c"
     id="path2" /><path
     d="m 95.583369,148.71616 c -0.411,-0.491 0.508,-0.576 0.133,-1.025 -0.743,-0.887 -1.095,-0.203 -1.878,-1.059 -0.232,-0.254 -0.065,-0.689 -0.035,-1.031 0.695,-8.086 -2.239,-8.547 3.862,-25.629 1.358,-3.801 10.449001,-18.809 14.195001,-22.749999 29.921,-31.483 39.429,-27.907 49.396,-31.914 l 1.031,-0.263 1.031,-0.255 1.031,-0.137 c 53.247,-8.209 28.657,64.665999 -25.557,89.664999 -12.751,5.88 -13.248,3.857 -21.874,3.043 -0.692,-0.065 -1.39,-0.065 -2.083,-0.123 -0.334,-0.028 -3.771,-0.315 -4.111,-0.797 -0.122,-0.173 0.477,-0.355 0.355,-0.528 -0.585,-0.712 -1.17,-1.423 -1.755,-2.135 13.824,-64.431999 56.959,-67.016999 62.352,-75.129999 2.735,-4.114 0.924,-15.187 -12.37,-9.098 -49.538,22.688 -58.993,61.144999 -63.723001,79.164999 z"
     style="fill:#f9de64"
     id="path3" /><path
     d="m 236.60937,384.27416 c -88.11,12.067 -95.887,16.992 -99.319,7.9 -4.838,-12.815 14.023,-12.104 38.342,-15.99 6.739,-1.077 79.556,-12.711 84.523,-11.537 7.723,1.825 9.944,14.245 -1.906,16.368 -0.194,0.035 -19.127,2.84 -21.639,3.259 z"
     style="fill:#b5b5b5"
     id="path4" /><path
     d="m 207.60337,361.71916 c -20.708,3.564 -54.955,8.134 -59.743,8.773 -12.359,1.649 -17.314,-14.27 -1.076,-16.785 9.341,-1.447 47.415,-6.835 51.539,-7.418 56.583,-8.008 65.927,-12.585 68.035,-1.639 0.696,3.614 -1.458,8.775 -8.104,9.713 -46.644,6.582 -46.594,6.8 -50.651,7.356 z"
     style="fill:#b5b5b5"
     id="path5" /><path
     d="m 95.583369,148.71616 c 4.729001,-18.02 14.185001,-56.476999 63.723001,-79.164999 13.295,-6.089 15.105,4.984 12.37,9.098 -5.393,8.113 -48.529,10.698 -62.352,75.129999 -1.86,14.154 -12.046001,7.013 -13.106001,5.277 -2.286,-3.745 -0.667,-9.928 -0.635,-10.339 z"
     style="fill:#fefef4"
     id="path6" /><path
     d="m 160.15837,342.10616 c -5.964,1.06 -12.037,2.797 -12.075,-0.578 -0.2,-17.57 0.343,-18.2 1.852,-18.246 2.296,-0.07 88.113,-0.006 98.982,-0.055 4.738,-0.021 7.221,-0.797 6.128,3.857 -0.672,2.859 -20.873,3.647 -42.169,7.549 -13.244,2.426 -48.491,6.933 -52.716,7.473 z"
     style="fill:#848484"
     id="path7" /><path
     d="m 263.14937,99.422161 c -13.337,-10.677 -13.612,-10.179 -27.429,-17.089 -4.294,-2.147 -5.349,-8.733 -1.206,-11.963 7.555,-5.889 41.698,14.415 59.58,44.396999 2.71,4.544 0.332,10.033 -3.987,11.022 -9.004,2.061 -5.339,-5.419 -26.958,-26.366999 z"
     style="fill:#fefef1"
     id="path9" /><path
     d="m 244.73837,392.74016 c 6.991,-1.18 7.641,-1.24 8.312,-1.302 4.063,-0.375 1.905,10.022 1.725,10.885 -1.891,9.108 -15.028,6.945 -15.146,6.945 -73.658,-0.116 -86.476,0.844 -87.723,-1.681 -1.119,-2.268 0.714,-1.485 3.215,-1.798 8.43,-1.057 72.905,-10.875 89.616,-13.049 z"
     style="fill:#858585"
     id="path10" /><path
     d="m 220.20337,433.55216 c -2.035,1.135 -11.406,6.361 -28.931,3.397 -10.495,-1.775 -23.807,-18.056 -17.643,-18.092 10.338,-0.061 40.798,-0.02 44.346,-0.015 4.874,0.007 13.51,-0.542 13.671,1.018 0.493,4.784 -10.299,12.839 -11.443,13.693 z"
     style="fill:#858585"
     id="path11" /><path
     d="m 37.368369,224.94616 c 2.911,-9.098 3.985,-8.499 4.288,-8.474 2.349,0.194 1.435,1.277 3.255,6.406 5.699,16.063 19.886,11.644 19.205,16.53 -0.332,2.387 -1.345,1.459 -6.959,3.29 -12.662,4.131 -12.501,17.436 -14.67,19.132 -1.859,1.454 -3.863,-4.352 -4.027,-4.827 -6.728,-19.496 -17.13,-12.179 -19.289,-17.61 -1.925,-4.841 10.656,0.862 18.197,-14.448 z"
     style="fill:#ffffff;fill-opacity:1"
     id="path12" /><path
     d="m 361.41237,88.914161 c 0.33,-1.043 1.712,-6.797 3.036,-7.139 1.662,-0.428 2.264,1.561 2.332,1.786 0.321,1.062 0.559,2.148 0.881,3.209 5.471,18.046999 19.505,13.159 19.729,17.558999 0.08,1.567 -6.921,3.767 -7.574,3.972 -12.464,3.915 -11.492,20.118 -15.521,19.071 -0.841,-0.219 -2.979,-6.868 -3.179,-7.487 -4.17,-12.969 -18.758,-11.665 -18.516,-15.545 0.328,-5.249999 11.286,2.106 18.812,-15.425999 z"
     style="fill:#ffffff;fill-opacity:1"
     id="path13" /><path
     d="m 324.32737,279.49816 c 0.224,0.195 38.109,29.716 21.671,34.652 -2.902,0.871 -7.792,2.34 -29.847,-23.324 -0.111,-0.129 -7.642,-8.227 -3.054,-12.996 4.711,-4.897 10.299,0.94 11.23,1.669 z"
     style="fill:#ffffff;fill-opacity:1"
     id="path14" /><path
     d="m 59.586369,297.55316 c 1.583,-1.706 11.444,-12.334 21.37,-19.734 6.144,-4.58 12.216,0.147 10.636,6.091 -0.186,0.7 -25.875,36.205 -35.467,29.696 -7.144,-4.848 1.402,-13.525 3.462,-16.052 z"
     style="fill:#ffffff;fill-opacity:1"
     id="path15" /><path
     d="m 0.65736948,175.35816 c -3.38899998,-9.509 7.08000002,-10.88 14.16799952,-10.955 34.123,-0.361 33.461,4.249 33.983,5.961 3.044,9.984 -16.3,8.922 -16.468,8.928 -24.1079995,0.845 -26.9399995,1.516 -31.68299952,-3.934 z"
     style="fill:#ffffff;fill-opacity:1"
     id="path16" /><path
     d="m 69.536369,56.849161 c -5.976,-5.241 -12.846,-13.072 -14.073,-14.68 -4.708,-6.165 -1.183,-12.017 3.699,-12.115 6.586,-0.133 35.142,26.542 31.931,35.093 -3.995,10.637 -20.328,-7.166 -21.557,-8.298 z"
     style="fill:#ffffff;fill-opacity:1"
     id="path17" /><path
     d="m 358.15137,177.76916 c -6.457,-3.582 -6.336,-11.228 5.257,-12.246 25.859,-2.27 36.663,-1.521 39.145,3.804 7.068,15.158 -35.657,10.447 -44.402,8.442 z"
     style="fill:#ffffff;fill-opacity:1"
     id="path18" /><path
     d="m 336.64737,53.897161 c -6.014,5.665 -19.412,21.652 -24.481,11.128 -3.452,-7.169 25.379,-36.068 32.656,-34.944 4.718,0.729 7.239,6.982 2.773,12.151 -0.837,0.968 -0.912,0.877 -10.948,11.665 z"
     style="fill:#ffffff;fill-opacity:1"
     id="path19" /><path
     d="m 358.22137,245.64116 c -6.38,-2.914 -15.624,-5.263 -14.366,-12.37 0.843,-4.767 6.13,-5.121 9.199,-4.086 20.444,6.897 20.535,11.393 20.574,13.355 0.212,10.468 -14.269,3.638 -15.407,3.101 z"
     style="fill:#ffffff;fill-opacity:1"
     id="path22" /><path
     d="m 50.079369,100.83916 c 1.216,0.569 11.274,3.126 9.106,10.738 -2.73,9.585 -27.461,-3.752 -29.08,-7.128 -1.27,-2.647 -0.884,-12.360999 12.415,-6.943999 0.612,0.249 0.56,0.247 7.559,3.333999 z"
     style="fill:#ffffff;fill-opacity:1"
     id="path23" /><path
     d="m 140.83537,15.586161 c 0.291,0.747 5.279,9.699 -1.427,13.058 -8.79,4.404 -16.633,-20.5180004 -15.452,-24.3840004 1.538,-5.03400004 9.548,-7.076 13.298,2.251 0.291,0.724 0.265,0.672 3.581,9.0750004 z"
     style="fill:#ffffff;fill-opacity:1"
     id="path24" /><path
     d="m 262.47137,15.722161 c 3.692,-8.8980004 6.16,-16.70600044 12.225,-15.53900044 9.994,1.92300004 0.844,18.87500044 -1.487,23.47000044 -4.318,8.511 -10.61,5.631 -12.05,2.386 -1.845,-4.156 1.17,-9.864 1.312,-10.318 z"
     style="fill:#ffffff;fill-opacity:1"
     id="path25" /><path
     d="m 306.98237,148.64116 c 0.194,1.285 2.349,7.21 -0.205,11.473 -2.236,3.732 -10.729,5.061 -12.734,-3.107 -2.764,-11.258 -4.914,-21.065 4.366,-21.134 7.294,-0.054 7.907,9.723 8.572,12.767 z"
     style="fill:#fefdec"
     id="path26" /></svg>
