<?xml version="1.0" encoding="UTF-8" standalone="no"?>
<svg
   width="202.87422"
   height="172.20073"
   viewBox="0 0 202.87423 172.20073"
   version="1.1"
   xml:space="preserve"
   style="clip-rule:evenodd;fill-rule:evenodd;stroke-linejoin:round;stroke-miterlimit:2"
   id="svg19"
   sodipodi:docname="mascot.svg"
   xmlns:inkscape="http://www.inkscape.org/namespaces/inkscape"
   xmlns:sodipodi="http://sodipodi.sourceforge.net/DTD/sodipodi-0.dtd"
   xmlns="http://www.w3.org/2000/svg"
   xmlns:svg="http://www.w3.org/2000/svg"><defs
   id="defs19" /><sodipodi:namedview
   id="namedview19"
   pagecolor="#ffffff"
   bordercolor="#000000"
   borderopacity="0.25"
   inkscape:showpageshadow="2"
   inkscape:pageopacity="0.0"
   inkscape:pagecheckerboard="0"
   inkscape:deskcolor="#d1d1d1"><inkscape:page
     x="3.3877439e-29"
     y="0"
     width="202.87422"
     height="172.20073"
     id="page2"
     margin="0"
     bleed="0" /></sodipodi:namedview>

    <g
   transform="matrix(1.375,0,0,1.375,-1134.5444,-298.8309)"
   id="g1"
   inkscape:export-filename="g1.svg"
   inkscape:export-xdpi="96"
   inkscape:export-ydpi="96">
        <path
   d="m 881.558,218.933 c 53.62,-5.862 66.499,5.969 70.705,9.833 20.381,18.724 20.4,32.441 20.405,35.733 0.026,17.907 -5.999,16.43 -6.556,18.897 -1.158,5.123 -2.798,5.275 -0.508,10.056 2.079,4.343 -1.686,8.419 -1.316,11.082 1.037,7.485 -0.894,7.472 -3.75,10.995 -1.499,1.848 0.941,8.198 -6.2,11.565 -5.206,2.454 -4.724,6.473 -9.895,6.946 -7.439,0.679 -6.526,5.093 -13.886,4.142 -1.573,-0.203 -20.01,6.379 -27.058,3.32 -6.775,-2.94 -7.33,3.074 -14.132,0.328 -6.179,-2.493 -7,2.886 -12.788,-0.47 -5.014,-2.908 -6.115,1.058 -11.001,-2.003 -5.951,-3.727 -7.994,0.948 -12.84,-4.078 -3.704,-3.842 -5.12,-1.868 -7.798,-5.16 -4.545,-5.587 -8.486,-2.668 -10.036,-9.708 -0.859,-3.899 -0.487,-4.096 -3.136,-7.123 -3.247,-3.709 -0.382,-9.854 -1.305,-11.77 -2.562,-5.315 -2.211,-5.556 -0.356,-11.119 0.613,-1.837 -3.418,-4.858 -0.185,-10.643 1.621,-2.9 0.896,-3.007 0.848,-6.266 -0.101,-6.977 -1.999,-6.401 -4.566,-12.869 -2.8,-7.056 0.593,-22.578 1.734,-24.888 3.29,-6.665 28.989,-13.669 53.62,-16.8 z"
   style="fill:#040202"
   id="path1" />
    </g>









    <g
   transform="matrix(1.375,0,0,1.375,-1134.5444,-298.8309)"
   id="g2">
        <path
   d="m 908.942,324.556 c -1.363,10.023 -0.595,16.057 -6.739,11.315 -3.591,-2.773 -6.713,5.577 -12.598,1.469 -2.574,-1.796 -2.959,-2.116 -5.33,-0.11 -1.631,1.38 -4.712,1.717 -6.644,0.094 -2.734,-2.298 -3.023,-2.762 -6.294,-1.182 -4.444,2.148 -5.792,-4.358 -8.75,-3.35 -4.584,1.561 -5.185,1.605 -8.266,-2.162 -2.41,-2.947 -4.314,-0.221 -6.431,-3.412 -1.667,-2.511 -1.411,-3.013 -4.422,-3.498 -5.654,-0.913 -4.276,-7.53 -4.126,-8.253 0.676,-3.247 -7.938,-4.353 -4.64,-9.852 1.974,-3.293 2.05,-3.874 -0.794,-6.488 -3.604,-3.313 2.803,-8.379 1.294,-10.424 -2.387,-3.233 -4.15,-4.551 -0.027,-8.552 2.247,-2.181 -2.619,-8.1 1.277,-5.582 0.51,0.33 4.618,7.086 16.184,13.679 11.749,6.698 56.333,-11.686 58.364,-6.003 0.881,2.468 0.419,16.794 0.372,18.253 -0.338,10.481 -2.135,22.147 -2.43,24.058 z"
   style="fill:#fdfcfc"
   id="path2" />
    </g>


    <g
   transform="matrix(1.375,0,0,1.375,-1134.5444,-298.8309)"
   id="g3">
        <path
   d="m 888.791,233.245 c -0.589,0.256 -0.702,1.174 -1.291,1.431 -1.207,0.525 -1.783,-2.056 -16.028,3.745 -6.277,2.556 -6.977,11.261 7.025,10.672 1.388,-0.059 19.378,-1.703 19.159,-2.593 -0.09,-0.367 -0.443,-0.633 -0.533,-1 l 1.665,-1.217 c 2.097,2.905 5.448,7.419 5.925,8.061 2.753,4.365 5.954,6.763 0.809,7.355 -26.591,3.059 -34.722,8.175 -42.043,8.46 -14.437,0.562 -30.429,-24.57 -31.661,-26.819 -3.541,-6.47 10.999,-11.384 40.633,-17.076 7.812,-1.5 7.667,0.622 16.34,8.981 z"
   style="fill:#f8d54e"
   id="path3" />
    </g>




    <g
   transform="matrix(1.375,0,0,1.375,-1134.5444,-298.8309)"
   id="g4">
        <path
   d="m 865.549,271.908 c 14.081,-2.896 19.356,-5.593 41.919,-8.685 3.553,-0.487 3.012,2.943 3.145,5.272 0.324,5.687 2.44,7.94 -3.141,8.827 -44.433,7.069 -45.936,13.115 -57.298,4.585 -25.391,-19.063 -21.124,-30.651 -20.894,-33.484 0.311,-3.831 4.428,2.782 4.494,2.86 17.968,21.327 23.744,21.037 31.775,20.625 z"
   style="fill:#f0c139"
   id="path4" />
    </g>
    <g
   transform="matrix(1.375,0,0,1.375,-1134.5444,-298.8309)"
   id="g5">
        <path
   d="m 932.927,325.559 c 3.525,-22.196 2.054,-35.761 2.434,-44.087 0.063,-1.371 0.662,-2.121 17.152,-0.071 7.074,0.879 11.498,0.866 7.589,6.797 -0.351,0.534 -0.842,0.971 -1.166,1.521 -1.311,2.234 5.407,5.267 2.323,9.623 -2.035,2.874 -2.295,3.069 -0.944,6.233 2.355,5.514 -5.615,6.401 -4.942,9.951 1.925,10.161 -4.595,6.76 -6.731,9.1 -1.961,2.146 -0.093,6.563 -8.113,4.76 -3.961,-0.89 -4.876,7.025 -7.936,4.944 -0.861,-0.586 0.233,-8.076 0.334,-8.771 z"
   style="fill:#fdfdfc"
   id="path5" />
    </g>

    <g
   transform="matrix(1.375,0,0,1.375,-1134.5444,-298.8309)"
   id="g6">
        <path
   d="m 918.497,225.523 c -0.493,-0.227 -0.051,-1.231 -2.007,-0.923 -1.539,0.241 -1.44,0.398 -2.99,0.828 l -0.152,1.072 -1.121,1.249 c -0.935,-0.956 -7.114,-6.703 -3.818,-6.583 36.561,1.322 40.784,9.418 47.041,16.379 3.224,3.588 17.92,21.675 10.121,23.313 -2.438,0.512 -2.422,-0.419 -31.023,-2.791 -2.781,-0.231 -1.114,-2.975 -10.533,-16.2 0.02,-0.037 3.093,-2.688 -0.618,-4.225 -1.9,-0.787 -1.809,0.839 -1.989,0.923 l -2.208,-2.813 c -0.336,-0.386 -0.289,-0.402 -4.128,-4.886 -0.074,-0.087 0,0 -0.976,-1.046 0.64,-0.099 0.765,-1.241 1.404,-1.341 0.728,-0.112 1.333,0.673 2.058,0.804 0.703,0.128 2.298,-0.132 9.01,0.893 16.782,2.565 21.256,13.685 21.488,15.347 1.017,7.292 -16.106,1.234 -15.961,4.977 0.121,3.132 6.082,2.44 7.451,2.513 18.767,1 10.556,-12.879 9.043,-14.582 -10.52,-11.843 -19.382,-11.374 -30.092,-12.908 z"
   style="fill:#f9d857"
   id="path6" />
    </g>








    <g
   transform="matrix(1.375,0,0,1.375,-1134.5444,-298.8309)"
   id="g7">
        <path
   d="m 950.551,277.07 c -14.211,-1.467 -15.279,-0.522 -15.587,-2.651 -0.126,-0.869 -1.196,-8.269 -0.633,-10.96 0.599,-2.863 23.157,0.835 25.144,1.16 6.802,1.115 9.375,-1.105 9.347,1.842 -0.151,16.086 -7.757,12.212 -18.271,10.609 z"
   style="fill:#efc03c"
   id="path7" />
    </g>











    <g
   transform="matrix(1.375,0,0,1.375,-1134.5444,-298.8309)"
   id="g8">
        <path
   d="m 918.497,225.523 c 10.71,1.534 19.572,1.065 30.092,12.908 1.513,1.703 9.724,15.582 -9.043,14.582 -1.369,-0.073 -7.33,0.619 -7.451,-2.513 -0.145,-3.743 16.978,2.315 15.961,-4.977 -0.232,-1.662 -4.706,-12.782 -21.488,-15.347 -6.712,-1.025 -8.307,-0.765 -9.01,-0.893 -0.725,-0.131 -1.33,-0.916 -2.058,-0.804 -0.639,0.1 -0.764,1.242 -1.404,1.341 -0.623,-0.69 -1.246,-1.381 -1.869,-2.071 l 1.121,-1.249 0.152,-1.072 c 2.579,-0.223 2.498,-0.059 4.997,0.095 z"
   style="fill:#f0bf2f"
   id="path8" />
    </g>











    <g
   transform="matrix(1.375,0,0,1.375,-1134.5444,-298.8309)"
   id="g9">
        <path
   d="m 888.791,233.245 c 0.642,0.674 1.285,1.348 1.927,2.022 -5.29,5.515 -7.29,1.945 -18.042,6.505 -3.084,1.308 -1.254,3.946 4.825,3.706 9.903,-0.39 17.156,-2.464 18.999,-1.176 0.369,0.258 0.254,0.94 0.623,1.198 0.09,0.367 0.443,0.633 0.533,1 0.219,0.89 -17.771,2.534 -19.159,2.593 -14.002,0.589 -13.302,-8.116 -7.025,-10.672 14.245,-5.801 14.821,-3.22 16.028,-3.745 0.589,-0.257 0.702,-1.175 1.291,-1.431 z"
   style="fill:#f0c02e"
   id="path9" />
    </g>





    <g
   transform="matrix(1.375,0,0,1.375,-1134.5444,-298.8309)"
   id="g10">
        <path
   d="m 890.718,235.267 c 4.165,4.439 4.154,4.337 8.07,9.016 l -1.665,1.217 c -0.369,-0.258 -0.254,-0.94 -0.623,-1.198 -1.843,-1.288 -9.096,0.786 -18.999,1.176 -6.079,0.24 -7.909,-2.398 -4.825,-3.706 10.752,-4.56 12.752,-0.99 18.042,-6.505 z"
   style="fill:#fbdb56"
   id="path10" />
    </g>




























    <g
   transform="matrix(1.375,0,0,1.375,-1134.5444,-298.8309)"
   id="g11">
        <path
   d="m 870.516,306.026 c -0.737,-0.167 -8.36,-1.887 -4.034,-8.54 5.095,-7.835 16.766,6.894 4.034,8.54 z"
   style="fill:#020202"
   id="path11" />
    </g>







    <g
   transform="matrix(1.375,0,0,1.375,-1134.5444,-298.8309)"
   id="g12">
        <path
   d="m 891.417,314.024 c 2.67,-0.972 2.518,-1.15 4.326,-3.336 1.932,-2.338 3.891,-0.59 2.972,1.904 -3.378,9.164 -18.4,3.737 -16.511,-2.248 1.515,-4.799 2.245,3.61 9.213,3.68 z"
   style="fill:#040404"
   id="path12" />
    </g>



    <g
   transform="matrix(1.375,0,0,1.375,-1134.5444,-298.8309)"
   id="g13">
        <path
   d="m 909.026,300.355 c -0.158,0.421 -0.316,0.841 -0.473,1.262 -1.656,-0.193 -1.64,-0.18 -3.047,-1.126 -3.928,-2.64 -5.836,2.647 -7.931,1.845 -5.1,-1.954 8.878,-12.184 11.451,-1.981 z"
   style="fill:#060606"
   id="path13" />
    </g>









    <g
   transform="matrix(1.375,0,0,1.375,-1134.5444,-298.8309)"
   id="g14">
        <path
   d="m 950.636,309.648 c -0.295,0.171 -4.336,2.519 -4.108,-1.146 0.169,-2.719 6.225,-8.987 6.054,-3 -0.067,2.354 -0.625,2.115 -1.946,4.146 z"
   style="fill:#ddded8"
   id="path14" />
    </g>

    <g
   transform="matrix(1.375,0,0,1.375,-1134.5444,-298.8309)"
   id="g15">
        <path
   d="m 878.405,324.928 c 0.439,0.216 8.819,4.329 3.022,5.313 -4.559,0.774 -9.064,-5.335 -3.022,-5.313 z"
   style="fill:#d6d6cb"
   id="path15" />
    </g>








    <g
   transform="matrix(1.375,0,0,1.375,-1134.5444,-298.8309)"
   id="g16">
        <path
   d="m 856.711,319.372 c 5.411,5.245 -0.94,4.788 -2.053,3.91 -0.331,-0.261 -2.824,-2.227 -2.192,-4.792 0.814,-3.299 4.025,0.614 4.245,0.882 z"
   style="fill:#dedcd3"
   id="path16" />
    </g>





    <g
   transform="matrix(1.375,0,0,1.375,-1134.5444,-298.8309)"
   id="g17">
        <path
   d="m 846.261,294.625 c 1.824,8.134 -7.613,0.32 -4.318,-3.736 0.288,-0.355 1.888,-2.167 4.318,3.736 z"
   style="fill:#e0dcd4"
   id="path17" />
    </g>
























    <g
   transform="matrix(1.375,0,0,1.375,-1134.5444,-298.8309)"
   id="g18">
        <path
   d="m 921.408,238.565 c 0.18,-0.084 0.089,-1.71 1.989,-0.923 3.711,1.537 0.638,4.188 0.618,4.225 -0.869,-1.1 -1.738,-2.201 -2.607,-3.302 z"
   style="fill:#e4cc5e"
   id="path18" />
    </g>
    <g
   transform="matrix(1.375,0,0,1.375,-1134.5444,-298.8309)"
   id="g19">
        <path
   d="m 918.497,225.523 c -2.499,-0.154 -2.418,-0.318 -4.997,-0.095 1.55,-0.43 1.451,-0.587 2.99,-0.828 1.956,-0.308 1.514,0.696 2.007,0.923 z"
   style="fill:#f9d24a"
   id="path19" />
    </g>
</svg>
