<?xml version="1.0" encoding="UTF-8" standalone="no"?>
<svg
   width="299.20657"
   height="453.26285"
   viewBox="0 0 299.20657 453.26285"
   version="1.1"
   xml:space="preserve"
   style="clip-rule:evenodd;fill-rule:evenodd;stroke-linejoin:round;stroke-miterlimit:2"
   id="svg2"
   sodipodi:docname="ticket.svg"
   xmlns:inkscape="http://www.inkscape.org/namespaces/inkscape"
   xmlns:sodipodi="http://sodipodi.sourceforge.net/DTD/sodipodi-0.dtd"
   xmlns="http://www.w3.org/2000/svg"
   xmlns:svg="http://www.w3.org/2000/svg"><defs
     id="defs2" /><sodipodi:namedview
     id="namedview2"
     pagecolor="#ffffff"
     bordercolor="#000000"
     borderopacity="0.25"
     inkscape:showpageshadow="2"
     inkscape:pageopacity="0.0"
     inkscape:pagecheckerboard="0"
     inkscape:deskcolor="#d1d1d1"><inkscape:page
       x="0"
       y="0"
       width="299.20657"
       height="453.26285"
       id="page2"
       margin="0"
       bleed="0" /></sodipodi:namedview><g
     id="g2"
     inkscape:export-filename="../Dev/UVG/js-game/svg/paper.svg"
     inkscape:export-xdpi="96"
     inkscape:export-ydpi="96"
     transform="translate(-378.49962,-62.883846)"><path
       d="m 646.067,79.931 c 6.229,7.639 7.17,11.228 10.848,6.772 17.909,-21.698 20.225,-25.45 20.484,-22.437 0.749,8.728 -0.103,8.694 -0.136,109.499 -0.005,15.873 0,336.856 0.032,338.252 0.071,3.147 0.541,3.343 -0.382,3.94 -1.933,1.249 -19.673,-26.086 -22.43,-24.327 -1.523,0.972 -15.368,22.032 -17.743,21.667 -2.187,-0.336 -16.158,-23.064 -18.445,-21.789 -1.379,0.769 -15.729,21.8 -17.596,21.785 -2.876,-0.023 -16.53,-24.311 -19.154,-21.47 -0.868,0.94 -15.544,21.394 -16.899,21.504 -3.029,0.246 -16.355,-23.83 -19.292,-21.541 -2.116,1.649 -15.281,22.255 -17.966,21.454 -1.67,-0.498 -15.816,-23.112 -18.284,-21.563 -1.587,0.996 -15.421,22.057 -17.791,21.646 -1.928,-0.335 -16.073,-23.138 -18.405,-21.789 -1.437,0.831 -15.461,21.883 -17.633,21.741 -2.633,-0.173 -16.62,-24.441 -19.141,-21.477 -0.399,0.47 -15.424,21.384 -16.907,21.483 -3.014,0.201 -16.639,-24.002 -19.338,-21.546 -1.644,1.496 -1.307,1.774 -17.649,21.457 -0.783,0.943 -2.007,3.557 -3.169,2.828 -0.587,-0.369 -0.147,-199.136 -0.288,-368.036 -0.064,-77.026 -0.493,-76.985 -0.155,-83.67 0.197,-3.887 1.931,0.212 11.643,11.532 9.965,11.616 10.147,15.423 13.172,12.066 5.993,-6.653 18.32,-23.51 19.801,-22.983 2.586,0.919 19.016,25.275 21.473,23.825 1.794,-1.059 18.74,-24.457 20.738,-23.867 2.236,0.66 18.811,25.763 21.49,23.852 0.889,-0.634 18.646,-23.481 19.829,-23.631 2.888,-0.365 19.359,24.696 21.624,23.7 1.962,-0.862 18.876,-23.93 20.71,-23.861 2.398,0.09 18.889,25.323 21.489,23.874 2.131,-1.188 19.075,-24.479 20.724,-23.87 2.644,0.977 19.081,25.232 21.498,23.804 0.306,-0.181 16.188,-19.662 17.587,-21.379 3.976,-4.877 4.991,-0.483 11.954,8.09 0.293,0.36 0.275,0.331 3.707,4.465 z"
       style="fill:#030302"
       id="path1" /><path
       d="m 434.468,481.936 c -14.643,18.824 -15.129,19.357 -16.215,18.618 -1.581,-1.076 -15.371,-21.847 -17.599,-21.486 -1.547,0.251 -12.568,17.125 -14.02,15.952 -0.61,-0.493 0.223,-398.218 -0.401,-408.907 -0.294,-5.031 4.514,2.517 9.39,8.124 4.887,5.62 5.71,8.102 8.587,4.654 18.101,-21.689 18.508,-22.744 19.789,-21.646 2.601,2.227 18.204,24.839 20.903,23.168 1.796,-1.112 16.729,-20.164 18.134,-21.957 2.862,-3.651 3.498,-0.328 9.048,6.387 12.603,15.251 13.695,17.319 16.026,14.518 17.399,-20.913 18.094,-24.2 20.616,-21.321 9.149,10.441 18.074,24.682 20.518,22.186 2.821,-2.881 18.108,-23.427 19.887,-23.317 2.157,0.133 18.421,24.803 21.682,23.672 1.639,-0.568 18.473,-24.021 20.589,-23.684 2.05,0.327 18.655,25.355 21.591,23.51 1.675,-1.053 16.735,-20.137 18.145,-21.924 2.59,-3.282 3.274,-0.896 5.861,2.319 16.217,20.149 17.008,20.623 18.272,19.628 2.529,-1.992 10.352,-12.363 11.197,-13.482 0.161,-0.214 3.374,-4.473 3.246,-0.826 -0.535,15.238 -0.168,370.951 -0.135,403.207 0.005,4.587 0.821,5.574 -0.811,5.484 -1.813,-0.1 -11.854,-17.224 -14.3,-15.582 -1.652,1.109 -1.242,1.506 -15.209,19.677 -3.007,3.912 -3.803,0.669 -9.041,-6.185 -10.814,-14.151 -11.345,-13.982 -11.947,-13.632 -2.01,1.168 -15.874,23.354 -18.456,21.394 -1.588,-1.205 -1.093,-1.636 -15.213,-19.733 -2.993,-3.836 -4.112,0.267 -7.084,4.074 -12.501,16.013 -12.97,16.347 -13.882,15.753 -2.179,-1.42 -15.763,-23.298 -18.302,-21.201 -2.13,1.758 -15.355,22.195 -17.9,21.383 -1.412,-0.45 -15.781,-23.156 -18.311,-21.452 -1.597,1.076 -15.526,21.847 -17.763,21.461 -1.903,-0.328 -15.966,-23.127 -18.44,-21.598 -1.531,0.946 -15.644,21.756 -17.634,21.566 -2.432,-0.232 -16.564,-24.388 -19.104,-21.283 -0.153,0.187 -0.127,0.184 -1.715,2.482 z"
       style="fill:#efefe3"
       id="path2" /></g></svg>
