<?xml version="1.0" encoding="UTF-8" standalone="no"?>
<svg
   width="425925.81"
   height="257456.83"
   viewBox="0 0 425925.81 257456.83"
   version="1.1"
   xml:space="preserve"
   style="clip-rule:evenodd;fill-rule:evenodd;stroke-linejoin:round;stroke-miterlimit:2"
   id="svg26"
   sodipodi:docname="light.svg"
   xmlns:inkscape="http://www.inkscape.org/namespaces/inkscape"
   xmlns:sodipodi="http://sodipodi.sourceforge.net/DTD/sodipodi-0.dtd"
   xmlns="http://www.w3.org/2000/svg"
   xmlns:svg="http://www.w3.org/2000/svg"><defs
     id="defs26" /><sodipodi:namedview
     id="namedview26"
     pagecolor="#ffffff"
     bordercolor="#000000"
     borderopacity="0.25"
     inkscape:showpageshadow="2"
     inkscape:pageopacity="0.0"
     inkscape:pagecheckerboard="0"
     inkscape:deskcolor="#d1d1d1"><inkscape:page
       x="0"
       y="0"
       width="425925.81"
       height="257456.83"
       id="page2"
       margin="0"
       bleed="0" /></sodipodi:namedview><path
     d="m -342783.6,-46252.042 c -0.93,-17.788 -3.97,-57.446 30.97,-100.675 20.4,-25.248 55.71,-42.76 82.15,-46.318 114.21,-15.373 190.15,101.486 138.87,197.418 -21.55,40.306 -51.28,44.253 -54.6,78.498 -1.53,15.767 0.86,17.16 2.11,17.885 10.36,6.024 11.3,18.569 4.83,27.126 -1.72,2.273 -0.54,2.45 1.02,4.828 2.21,3.372 7.83,17.541 -6.41,25.941 -6.49,3.827 7.87,27.785 -21.93,30.626 -4.25,0.405 -9.36,24.574 -32.04,27.2 -35.23,4.081 -43.52,-9.778 -50.92,-24.046 -2.37,-4.585 -3.59,-2.923 -8.78,-3.661 -8.64,-1.228 -12.37,-10.965 -15.63,-12.888 -1.05,-0.618 -8.38,-4.946 -9.78,-11.628 -2.35,-11.287 3.71,-16.157 4.56,-17.511 0.9,-1.434 -3.86,-5.743 -4.57,-9.3 -3.47,-17.258 10.53,-17.784 10.58,-24.646 0.27,-32.192 0,-37.431 -6.01,-49.417 -11.98,-24.102 -54.66,-36.335 -64.42,-109.432 z"
     style="fill:#4e4d47"
     id="path1" /><path
     d="m -342633.49,-46389.734 c 105.28,15.793 147.18,142.728 65.88,217.972 -19.09,17.674 -23.98,22.675 -28.12,47.57 -0.48,2.888 -2.02,1.927 -55.22,2.069 -7.84,0.02 -50.43,-0.01 -50.53,-0.02 -5.93,-0.366 2.9,-21.595 -28.29,-47.9 -68.42,-57.699 -60.65,-177.095 40.52,-214.324 24.82,-9.131 51.31,-5.909 55.76,-5.368 z"
     style="fill:#f4d11c"
     id="path2" /><path
     d="m -342755.81,-46287.046 c -0.41,-0.491 0.5,-0.576 0.13,-1.025 -0.74,-0.887 -1.1,-0.203 -1.88,-1.059 -0.23,-0.254 -0.1,-0.689 0,-1.031 0.69,-8.086 -2.24,-8.547 3.86,-25.629 1.36,-3.801 10.45,-18.809 14.19,-22.75 29.92,-31.483 39.43,-27.907 49.4,-31.914 l 1.03,-0.263 1.03,-0.255 1.03,-0.137 c 53.25,-8.209 28.66,64.666 -25.55,89.665 -12.76,5.88 -13.25,3.857 -21.88,3.043 -0.69,-0.07 -1.39,-0.07 -2.08,-0.123 -0.34,-0.03 -3.77,-0.315 -4.11,-0.797 -0.12,-0.173 0.47,-0.355 0.35,-0.528 -0.58,-0.712 -1.17,-1.423 -1.75,-2.135 13.82,-64.432 56.96,-67.017 62.35,-75.13 2.73,-4.114 0.92,-15.187 -12.37,-9.098 -49.54,22.688 -58.99,61.145 -63.72,79.165 z"
     style="fill:#f9de64"
     id="path3" /><path
     d="m -342614.79,-46051.488 c -88.11,12.067 -95.88,16.992 -99.32,7.9 -4.84,-12.815 14.03,-12.104 38.34,-15.99 6.74,-1.077 79.56,-12.711 84.53,-11.537 7.72,1.825 9.94,14.245 -1.91,16.368 -0.19,0.04 -19.13,2.84 -21.64,3.259 z"
     style="fill:#b5b5b5"
     id="path4" /><path
     d="m -342643.79,-46074.043 c -20.71,3.564 -54.96,8.134 -59.75,8.773 -12.36,1.649 -17.31,-14.27 -1.07,-16.785 9.34,-1.447 47.41,-6.835 51.54,-7.418 56.58,-8.008 65.92,-12.585 68.03,-1.639 0.7,3.614 -1.46,8.775 -8.1,9.713 -46.65,6.582 -46.6,6.8 -50.65,7.356 z"
     style="fill:#b5b5b5"
     id="path5" /><path
     d="m -342755.81,-46287.046 c 4.72,-18.02 14.18,-56.477 63.72,-79.165 13.29,-6.089 15.1,4.984 12.37,9.098 -5.39,8.113 -48.53,10.698 -62.35,75.13 -1.86,14.154 -12.05,7.013 -13.11,5.277 -2.29,-3.745 -0.67,-9.928 -0.63,-10.339 z"
     style="fill:#fefef4"
     id="path6" /><path
     d="m -342691.24,-46093.656 c -5.96,1.06 -12.04,2.797 -12.07,-0.578 -0.2,-17.57 0.34,-18.2 1.85,-18.246 2.29,-0.07 88.11,0 98.98,-0.06 4.74,-0.02 7.22,-0.797 6.13,3.857 -0.67,2.859 -20.87,3.647 -42.17,7.549 -13.25,2.426 -48.49,6.933 -52.72,7.473 z"
     style="fill:#848484"
     id="path7" /><path
     d="m -342588.25,-46336.34 c -13.34,-10.677 -13.61,-10.179 -27.43,-17.089 -4.29,-2.147 -5.35,-8.733 -1.2,-11.963 7.55,-5.889 41.69,14.415 59.58,44.397 2.71,4.544 0.33,10.033 -3.99,11.022 -9,2.061 -5.34,-5.419 -26.96,-26.367 z"
     style="fill:#fefef1"
     id="path9" /><path
     d="m -342606.66,-46043.022 c 6.99,-1.18 7.64,-1.24 8.31,-1.302 4.07,-0.375 1.91,10.022 1.73,10.885 -1.89,9.108 -15.03,6.945 -15.15,6.945 -73.66,-0.116 -86.47,0.844 -87.72,-1.681 -1.12,-2.268 0.71,-1.485 3.21,-1.798 8.43,-1.057 72.91,-10.875 89.62,-13.049 z"
     style="fill:#858585"
     id="path10" /><path
     d="m -342631.19,-46002.21 c -2.04,1.135 -11.41,6.361 -28.94,3.397 -10.49,-1.775 -23.8,-18.056 -17.64,-18.092 10.34,-0.06 40.8,-0.02 44.35,-0.01 4.87,0 13.51,-0.542 13.67,1.018 0.49,4.784 -10.3,12.839 -11.44,13.693 z"
     style="fill:#858585"
     id="path11" /><path
     d="m -342814.03,-46210.816 c 2.91,-9.098 3.99,-8.499 4.29,-8.474 2.35,0.194 1.43,1.277 3.25,6.406 5.7,16.063 19.89,11.644 19.21,16.53 -0.33,2.387 -1.35,1.459 -6.96,3.29 -12.66,4.131 -12.5,17.436 -14.67,19.132 -1.86,1.454 -3.86,-4.352 -4.03,-4.827 -6.72,-19.496 -17.13,-12.179 -19.29,-17.61 -1.92,-4.841 10.66,0.862 18.2,-14.448 z"
     style="fill:#f6d324"
     id="path12" /><path
     d="m -342489.98,-46346.848 c 0.32,-1.043 1.71,-6.797 3.03,-7.139 1.66,-0.428 2.26,1.561 2.33,1.786 0.32,1.062 0.56,2.148 0.88,3.209 5.47,18.047 19.51,13.159 19.73,17.559 0.1,1.567 -6.92,3.767 -7.57,3.972 -12.46,3.915 -11.49,20.118 -15.52,19.071 -0.84,-0.219 -2.98,-6.868 -3.18,-7.487 -4.17,-12.969 -18.76,-11.665 -18.52,-15.545 0.33,-5.25 11.29,2.106 18.82,-15.426 z"
     style="fill:#f5d223"
     id="path13" /><path
     d="m -342527.07,-46156.264 c 0.22,0.195 38.11,29.716 21.67,34.652 -2.9,0.871 -7.79,2.34 -29.85,-23.324 -0.11,-0.129 -7.64,-8.227 -3.05,-12.996 4.71,-4.897 10.3,0.94 11.23,1.669 z"
     style="fill:#f6d327"
     id="path14" /><path
     d="m -342791.81,-46138.209 c 1.58,-1.706 11.44,-12.334 21.37,-19.734 6.14,-4.58 12.22,0.147 10.64,6.091 -0.19,0.7 -25.88,36.205 -35.47,29.696 -7.15,-4.848 1.4,-13.525 3.46,-16.052 z"
     style="fill:#f6d522"
     id="path15" /><path
     d="m -342850.74,-46260.404 c -3.39,-9.509 7.08,-10.88 14.17,-10.955 34.12,-0.361 33.46,4.249 33.98,5.961 3.05,9.984 -16.3,8.922 -16.47,8.928 -24.1,0.845 -26.94,1.516 -31.68,-3.934 z"
     style="fill:#f6d427"
     id="path16" /><path
     d="m -342781.86,-46378.913 c -5.98,-5.241 -12.85,-13.072 -14.07,-14.68 -4.71,-6.165 -1.19,-12.017 3.7,-12.115 6.58,-0.133 35.14,26.542 31.93,35.093 -4,10.637 -20.33,-7.166 -21.56,-8.298 z"
     style="fill:#f6d327"
     id="path17" /><path
     d="m -342493.25,-46257.993 c -6.45,-3.582 -6.33,-11.228 5.26,-12.246 25.86,-2.27 36.66,-1.521 39.15,3.804 7.06,15.158 -35.66,10.447 -44.41,8.442 z"
     style="fill:#f6d42a"
     id="path18" /><path
     d="m -342514.75,-46381.865 c -6.01,5.665 -19.41,21.652 -24.48,11.128 -3.45,-7.169 25.38,-36.068 32.65,-34.944 4.72,0.729 7.24,6.982 2.78,12.151 -0.84,0.968 -0.91,0.877 -10.95,11.665 z"
     style="fill:#f6d324"
     id="path19" /><path
     d="m -342493.18,-46190.121 c -6.38,-2.914 -15.62,-5.263 -14.36,-12.37 0.84,-4.767 6.13,-5.121 9.2,-4.086 20.44,6.897 20.53,11.393 20.57,13.355 0.21,10.468 -14.27,3.638 -15.41,3.101 z"
     style="fill:#f6d327"
     id="path22" /><path
     d="m -342801.32,-46334.923 c 1.22,0.569 11.28,3.126 9.11,10.738 -2.73,9.585 -27.46,-3.752 -29.08,-7.128 -1.27,-2.647 -0.89,-12.361 12.41,-6.944 0.61,0.249 0.56,0.247 7.56,3.334 z"
     style="fill:#f5d42b"
     id="path23" /><path
     d="m -342710.56,-46420.176 c 0.29,0.747 5.28,9.699 -1.43,13.058 -8.79,4.404 -16.63,-20.518 -15.45,-24.384 1.54,-5.034 9.55,-7.076 13.3,2.251 0.29,0.724 0.26,0.672 3.58,9.075 z"
     style="fill:#f5d429"
     id="path24" /><path
     d="m -342588.93,-46420.04 c 3.7,-8.898 6.16,-16.706 12.23,-15.539 9.99,1.923 0.84,18.875 -1.49,23.47 -4.32,8.511 -10.61,5.631 -12.05,2.386 -1.84,-4.156 1.17,-9.864 1.31,-10.318 z"
     style="fill:#f5d527"
     id="path25" /><path
     d="m -342544.41,-46287.121 c 0.19,1.285 2.34,7.21 -0.21,11.473 -2.24,3.732 -10.73,5.061 -12.73,-3.107 -2.77,-11.258 -4.92,-21.065 4.36,-21.134 7.3,-0.05 7.91,9.723 8.57,12.767 z"
     style="fill:#fefdec"
     id="path26" /></svg>
