<?xml version="1.0" encoding="UTF-8" standalone="no"?>
<svg
   width="1258.3356"
   height="647.18121"
   viewBox="0 0 1258.3356 647.18121"
   version="1.1"
   xml:space="preserve"
   style="clip-rule:evenodd;fill-rule:evenodd;stroke-linejoin:round;stroke-miterlimit:2"
   id="svg22"
   sodipodi:docname="yellow.svg"
   inkscape:version="1.4.3 (0d15f75042, 2025-12-25)"
   xmlns:inkscape="http://www.inkscape.org/namespaces/inkscape"
   xmlns:sodipodi="http://sodipodi.sourceforge.net/DTD/sodipodi-0.dtd"
   xmlns="http://www.w3.org/2000/svg"
   xmlns:svg="http://www.w3.org/2000/svg"><defs
   id="defs22" /><sodipodi:namedview
   id="namedview22"
   pagecolor="#ffffff"
   bordercolor="#000000"
   borderopacity="0.25"
   inkscape:showpageshadow="2"
   inkscape:pageopacity="0.0"
   inkscape:pagecheckerboard="0"
   inkscape:deskcolor="#d1d1d1"
   inkscape:zoom="1.0284353"
   inkscape:cx="566.88061"
   inkscape:cy="331.0855"
   inkscape:window-width="2556"
   inkscape:window-height="1370"
   inkscape:window-x="0"
   inkscape:window-y="68"
   inkscape:window-maximized="1"
   inkscape:current-layer="svg22"><inkscape:page
     x="0"
     y="0"
     width="1258.3356"
     height="647.18121"
     id="page2"
     margin="0"
     bleed="0" /></sodipodi:namedview>
    <g
   transform="matrix(1.375,0,0,1.375,-74.992814,-52.456483)"
   id="g22">
        <path
   d="m 573.466,39.939 c 43.706,3.584 203.495,13.988 320.752,94.973 87.939,60.737 121.89,164.155 -25.89,247.279 -20.802,11.701 -22.604,9.274 -29.347,17.688 -80.076,99.92 -281.93,107.557 -285.468,107.808 -64.759,4.584 -272.405,-0.055 -364.094,-103.115 -7.422,-8.342 -7.104,-8.825 -17.075,-13.736 C 56.87,333.957 21.519,248.375 87.618,172.605 161.93,87.42 351.461,26.813 573.466,39.939 Z"
   style="display:inline;fill:#010303"
   id="path1"
   inkscape:label="outeroutline" />
        <path
   d="m 544.523,48.007 c 247.645,6.999 458.491,117.899 407.95,239.482 C 902.232,408.35 618.608,475.187 369.556,438.134 191.417,411.632 123.005,350.027 106.188,334.883 c 0.755,-1.72 1.524,-2.036 0.027,-3.132 -0.582,-0.426 -0.611,-0.329 -0.988,-1.001 -0.047,-0.084 -2.646,-2.391 -4.623,-5.315 -22.927,-33.909 -22.171,-52.421 -22.537,-63.942 -0.205,-6.47 -3.151,-7.326 1.345,-11.98 0.246,2.493 1.623,39.505 26.033,57.063 6.039,4.344 22.304,2.006 9.773,-16.889 -39.971,-60.27 6.251,-90.201 -6.876,-98.921 -0.212,-0.141 -0.841,-0.558 -3.028,-0.987 7.476,-13.675 44.34,-44.281 56.027,-50.56 12.493,-6.712 11.743,-7.845 24.348,-14.378 25.72,-13.329 51.502,-22.52 58.7,-26.688 2.04,-1.181 2.107,-1.337 4.29,-0.444 -9.837,6.433 -9.914,10.306 -9.343,12.823 2.247,9.914 20.333,2.623 21.275,2.339 44.395,-13.404 39.946,-22.384 37.658,-25.196 -3.815,-4.687 -11.063,-3.397 -11.757,-3.389 2.968,-4.06 4.074,-2.045 10.865,-4.202 C 374.873,55.47 436.384,53.553 519.5,49.139 l 1,-0.001 1,-0.02 1,0.002 1,-0.006 1,-0.03 1,-0.004 h 1 l 1,-0.011 1,0.005 1,0.052 1,-0.008 1,0.019 1,-0.009 1,-0.014 1,-0.013 1,-0.019 1,-0.002 1,-0.003 1,-0.014 1,-0.034 1,0.003 1,0.057 1,-0.01 1,-0.034 z"
   style="display:inline;fill:#f7c94c"
   id="path2"
   inkscape:label="rim" />
        <path
   d="m 297.606,124.738 c 120.208,-49.585 337.931,-54.957 470.696,20.077 91.894,50.843 121.553,139.531 -8.684,208.923 -122.022,65.015 -333.922,68.998 -465.056,13.617 -18.758,-7.922 -18.518,-8.3 -37.188,-16.572 -0.396,-0.175 -1.405,-0.622 -5.07,-1.893 -0.254,-0.675 0.923,-1.185 -0.865,-2.296 -28.307,-17.589 -80.605,-54.377 -73.536,-110.041 3.455,-27.201 26.109,-57.5 55.888,-77.641 39.752,-26.886 48.887,-25.997 63.815,-34.174 z"
   style="display:inline;fill:#010303"
   id="path3"
   inkscape:label="inneroutline" />
        <path
   d="m 208.136,298.797 c 0.304,-0.648 1.406,-0.649 1.71,-1.297 0.167,-0.357 -0.46,-0.645 -0.633,-1 -1.242,-2.546 -1.527,-2.387 -4.224,-10.095 -10.459,-29.888 4.857,-66.228 42.194,-93.32 74.567,-54.104 180.596,-62.674 193.32,-64.566 66.786,-9.931 208.791,-4.497 300.19,42.622 54.211,27.947 74.801,53.937 81.114,88.301 1.729,9.417 -2.144,29.942 -6.187,36.058 l -0.567,1 -0.113,1 -0.741,1 1.574,1.236 c -3.229,3.302 -14.52,16.932 -39.584,33.292 -128.114,83.626 -408.553,88.332 -540.986,-9.126 -17.724,-13.044 -26.856,-24.859 -27.067,-25.105 z"
   style="display:inline;fill:#fefefe"
   id="path4"
   inkscape:label="inner" />
        <path
   d="M 208.136,298.797 C 121.746,190.657 315.941,90.965 530.515,97.068 c 120.292,3.422 192.723,36.221 209.742,43.92 67.287,30.437 112.288,79.007 92.553,130.635 -5.3,13.863 -12.754,22.436 -17.037,28.113 l -1.574,-1.236 0.741,-1 0.113,-1 0.567,-1 c 4.043,-6.116 7.916,-26.641 6.187,-36.058 -6.313,-34.364 -26.903,-60.354 -81.114,-88.301 -91.399,-47.119 -233.404,-52.553 -300.19,-42.622 -12.724,1.892 -118.753,10.462 -193.32,64.566 -37.337,27.092 -52.653,63.432 -42.194,93.32 2.697,7.708 2.982,7.549 4.224,10.095 0.173,0.355 0.8,0.643 0.633,1 -0.304,0.648 -1.406,0.649 -1.71,1.297 z"
   style="display:inline;fill:#e4e4e4"
   id="path5"
   inkscape:label="innershadow" />
        <path
   d="m 795.743,420.985 c 12.848,-6.145 12.179,-7.219 17.771,-10.448 5.426,-3.132 1.12,1.855 0.974,1.951 -11.148,7.326 -15.746,17.104 -62.155,39.669 -38.513,18.726 -93.018,31.962 -110.9,34.885 -18.986,3.104 -159.963,32.913 -315.984,-14.395 -85.016,-25.778 -130.926,-72.406 -111.987,-60.071 21.954,14.297 61.098,28.49 85.008,36.019 111.422,35.083 332.965,52.187 497.273,-27.61 z"
   style="fill:#efbb00"
   id="path6"
   inkscape:label="bottom2" />
        <path
   d="m 768.302,144.815 c 0.285,-0.08 0.921,-2.157 4.167,-0.244 35.698,21.036 100.205,48.995 92.623,113.881 -5.68,48.609 -71.66,85.366 -73.8,86.695 -24.689,15.334 -94.926,50.286 -176.772,61.496 -22.938,3.142 -97.479,16.254 -199.967,1.521 -70.784,-10.176 -144.31,-35.184 -183.683,-63.154 -2.503,-1.778 -17.599,-12.502 -30.33,-23.538 -1.267,-1.098 -0.773,-1.292 -0.134,-2.79 3.769,2.98 28.251,22.338 51.898,30.208 3.665,1.271 4.674,1.718 5.07,1.893 18.67,8.272 18.43,8.65 37.188,16.572 131.134,55.381 343.034,51.398 465.056,-13.617 130.237,-69.392 100.578,-158.08 8.684,-208.923 z"
   style="display:inline;fill:#fff7e9"
   id="path7"
   inkscape:label="rimlight2" />
        <path
   d="m 544.523,48.007 -1.023,1.038 -1,0.034 -1,0.01 -1,-0.057 -1,-0.003 -1,0.034 -1,0.014 -1,0.003 -1,0.002 -1,0.019 -1,0.013 -1,0.014 -1,0.009 -1,-0.019 -1,0.008 -1,-0.052 -1,-0.005 -1,0.011 h -1 l -1,0.004 -1,0.03 -1,0.006 -1,-0.002 -1,0.02 -1,0.001 c -83.116,4.414 -144.627,6.331 -222.123,30.945 -6.791,2.157 -7.897,0.142 -10.865,4.202 -18.159,0.807 -35.129,11.689 -37.833,13.423 -2.183,-0.893 -2.25,-0.737 -4.29,0.444 -7.198,4.168 -32.98,13.359 -58.7,26.688 -12.605,6.533 -11.855,7.666 -24.348,14.378 -11.687,6.279 -48.551,36.885 -56.027,50.56 -2.521,0.635 -10.492,2.642 -19.899,25.683 -6.2,15.186 -6.032,31.285 -6.003,34.051 -4.496,4.654 -1.55,5.51 -1.345,11.98 0.366,11.521 -0.39,30.033 22.537,63.942 1.977,2.924 4.576,5.231 4.623,5.315 0.377,0.672 0.406,0.575 0.988,1.001 1.497,1.096 0.728,1.412 -0.027,3.132 C -2.553,226.667 125.105,139.917 198.413,107.297 224.079,95.876 348.404,40.556 544.523,48.007 Z"
   style="display:inline;fill:#fffbf3"
   id="path8"
   inkscape:label="rimlight1" />
        <path
   d="m 243.916,420.181 c 0.173,-0.387 -0.33,-0.876 -0.157,-1.263 0.361,-0.807 4.334,0.716 4.691,0.852 21.22,8.134 47.887,13.734 48.99,13.997 193.844,46.083 370.582,11.621 374.12,11.157 14.77,-1.938 16.339,-3.051 18.926,-3.507 55.684,-9.818 87.779,-22.574 89.964,-22.667 0.167,-0.007 2.613,0.807 -0.617,2.003 -0.889,0.329 -6.49,2.402 -11.067,4.223 -3.62,1.441 -3.534,1.367 -7.173,2.75 -140.864,53.551 -305.29,51.581 -432.004,21.362 -26.571,-6.337 -73.033,-22.928 -85.673,-28.907 z"
   style="display:inline;fill:#f6c202"
   id="path9"
   inkscape:label="bottom1" />
        <path
   d="m 297.606,124.738 c -14.928,8.177 -24.063,7.288 -63.815,34.174 -29.779,20.141 -52.433,50.44 -55.888,77.641 -7.069,55.664 45.229,92.452 73.536,110.041 1.788,1.111 0.611,1.621 0.865,2.296 -23.647,-7.87 -48.129,-27.228 -51.898,-30.208 -53.867,-36.568 -58.179,-113.96 22.777,-165.627 20.261,-12.931 34.423,-17.643 58.27,-25.688 5.975,-2.016 6.164,-1.024 12.047,-3.328 2.617,-1.024 2.752,-1.001 3,-0.959 1.137,0.194 -0.043,1.462 1.106,1.658 z"
   style="display:inline;fill:#fbc415"
   id="path10"
   inkscape:label="rimshadow" />
        <path
   d="m 919.512,218.925 c -10.198,-1.449 -4.441,-8.529 -29.582,-34.826 -8.839,-9.246 -46.338,-48.468 -137.316,-81.921 -35.426,-13.026 -52.094,-11.987 -46.752,-18.36 1.518,-1.812 38.428,-0.151 102.685,27.577 78.822,34.014 103.781,73.968 109.617,83.31 11.261,18.027 9.492,22.901 1.348,24.22 z"
   style="display:inline;fill:#ffffff"
   id="path11"
   inkscape:label="highlight12" />
        <path
   d="m 105.314,189.779 c 2.187,0.429 2.816,0.846 3.028,0.987 13.127,8.72 -33.095,38.651 6.876,98.921 12.531,18.895 -3.734,21.233 -9.773,16.889 -24.41,-17.558 -25.787,-54.57 -26.033,-57.063 -0.029,-2.766 -0.197,-18.865 6.003,-34.051 9.407,-23.041 17.378,-25.048 19.899,-25.683 z"
   style="fill:#ffffff"
   id="path12"
   inkscape:label="highlight11" />
        <path
   d="m 334.592,413.138 c 28.87,6.819 29.319,6.328 30.697,8.471 5.177,8.053 -68.449,-0.193 -145.699,-34.313 -43.058,-19.017 -46.644,-33.407 -37.078,-30.84 0.212,0.057 25.196,18.964 95.982,41.061 20.87,6.515 51.588,14.455 56.098,15.621 z"
   style="fill:#ffffff"
   id="path13"
   inkscape:label="highlight10" />
        <path
   d="m 723.227,403.485 c 1.427,-6.172 6.778,-7.671 21.157,-13.302 27.89,-10.92 47.242,-21.515 48.685,-9.651 0.956,7.864 -20.463,18.077 -39.474,24.248 -19.341,6.278 -29.448,8.111 -30.368,-1.295 z"
   style="fill:#ffffff"
   id="path14"
   inkscape:label="highlight9" />
        <path
   d="m 286.512,84.286 c 0.694,-0.008 7.942,-1.298 11.757,3.389 2.288,2.812 6.737,11.792 -37.658,25.196 -0.942,0.284 -19.028,7.575 -21.275,-2.339 -0.571,-2.517 -0.494,-6.39 9.343,-12.823 2.704,-1.734 19.674,-12.616 37.833,-13.423 z"
   style="fill:#ffffff"
   id="path15"
   inkscape:label="highlight8" />
        <path
   d="m 135.499,337.77 c -14.856,-1.914 -12.9,-16.125 -6.74,-19.866 14.373,-8.729 25.296,18.368 6.74,19.866 z"
   style="fill:#ffffff"
   id="path16"
   inkscape:label="highlight7" />
        <path
   d="m 930.427,250.922 c -14.363,-4.679 -9.102,-17.337 -3.833,-20.237 15.312,-8.425 23.145,21.713 3.833,20.237 z"
   style="fill:#ffffff"
   id="path17"
   inkscape:label="highlight6" />
        <path
   d="m 397.541,419.092 c 19.94,4.411 3.466,24.477 -6.623,14.952 -3.957,-3.736 -5.198,-14.767 6.623,-14.952 z"
   style="fill:#ffffff"
   id="path18"
   inkscape:label="highlight5" />
        <path
   d="m 223.412,119.558 c 6.799,16.072 -19.932,14.389 -14.042,0.882 0.325,-0.746 2.316,-4.002 6.179,-4.557 4.081,-0.587 7.402,3.155 7.863,3.675 z"
   style="fill:#ffffff"
   id="path19"
   inkscape:label="highlight4" />
        <path
   d="m 669.593,85.125 c -11.306,-4.237 -4.312,-12.27 -2.853,-13.265 11.258,-7.679 20.704,14.732 2.853,13.265 z"
   style="fill:#ffffff"
   id="path20"
   inkscape:label="highlight3" />
        <path
   d="m 806.176,370.601 c -1.999,-10.973 8.369,-9.747 10.102,-8.704 11.514,6.929 -4.656,21.367 -10.102,8.704 z"
   style="fill:#ffffff"
   id="path21"
   inkscape:label="highlight2" />
        <path
   d="m 927.867,272.405 c -0.048,-0.569 -0.907,-3.355 1.889,-5.568 1.197,-0.947 3.554,-1.162 4.855,-0.64 8.268,3.314 -1.703,16.796 -6.744,6.208 z"
   style="fill:#ffffff"
   id="path22"
   inkscape:label="highlight1" />
    </g>
</svg>
