<?xml version="1.0" encoding="UTF-8" standalone="no"?>
<svg
   width="202.24657"
   height="173.5945"
   viewBox="0 0 202.24657 173.59449"
   version="1.1"
   xml:space="preserve"
   style="clip-rule:evenodd;fill-rule:evenodd;stroke-linejoin:round;stroke-miterlimit:2"
   id="svg156"
   sodipodi:docname="eel.svg"
   xmlns:inkscape="http://www.inkscape.org/namespaces/inkscape"
   xmlns:sodipodi="http://sodipodi.sourceforge.net/DTD/sodipodi-0.dtd"
   xmlns="http://www.w3.org/2000/svg"
   xmlns:svg="http://www.w3.org/2000/svg"><defs
   id="defs156" /><sodipodi:namedview
   id="namedview156"
   pagecolor="#ffffff"
   bordercolor="#000000"
   borderopacity="0.25"
   inkscape:showpageshadow="2"
   inkscape:pageopacity="0.0"
   inkscape:pagecheckerboard="0"
   inkscape:deskcolor="#d1d1d1"><inkscape:page
     x="0"
     y="0"
     width="202.24657"
     height="173.59448"
     id="page1"
     margin="0"
     bleed="0" /></sodipodi:namedview>
    
    
    
    
    
    
    
    <g
   transform="matrix(1.375,0,0,1.375,-714.29644,-296.7246)"
   id="g8">
        <path
   d="m 667.062,271.531 c -0.3,2.756 0.788,6.6 -4.466,10.136 -2.159,1.454 -3.163,9.338 -2.985,9.788 2.14,5.404 1.765,5.601 -0.138,11.037 -1.113,3.177 3.471,5.571 -3.5,12.49 -2.002,1.987 0.818,8.414 -6.631,12.162 -4.965,2.499 -4.503,6.388 -9.795,6.802 -3.394,0.266 -3.306,0.499 -6.023,2.581 -5.476,4.197 -7.024,-0.54 -12.232,2.639 -5.371,3.278 -6.496,-1.138 -12.07,1.844 -7.315,3.915 -12.55,-1.509 -14.74,-0.555 -5.518,2.402 -5.753,2.877 -11.82,0.624 -2.041,-0.759 -6.122,2.734 -10.275,0.675 -3.26,-1.616 -3.252,-1.765 -6.909,-1.492 -5.713,0.427 -5.209,-2.822 -10.965,-2.422 -5.588,0.389 -4.611,-2.385 -11.805,-5.746 -4,-1.868 -2.908,-3.437 -7.058,-5.053 -7.553,-2.942 -3.311,-7.798 -7.882,-12.79 -5.525,-6.033 0.16233,-5.12796 -0.41834,-11.61697 -0.15624,-1.74603 -2.65411,-6.25081 -1.98779,-8.88895 1.37385,-5.43945 -0.86978,-10.09567 4.49761,-11.07669 4.44205,-0.81189 -1.97238,-8.84226 -4.63032,-11.32435 -5.04386,-4.71015 -7.42596,-13.15768 -2.71257,-23.27741 37.95,-47.274 133.48741,-43.68963 144.54541,23.46437 z"
   style="clip-rule:evenodd;fill:#080303;fill-rule:evenodd;stroke-linejoin:round;stroke-miterlimit:2"
   id="path1"
   sodipodi:nodetypes="ccccscccccccccccccsssscc"
   transform="translate(-0.48527273,-0.48653091)" /><path
   d="m 522.117,256.474 c 34.859,34.801 59.423,-14.95 97.6,2.624 19.395,8.928 23.275,12.874 39.777,10.38 0.861,-0.13 0.863,-0.129 0.928,-0.092 1.436,0.821 1.062,1.23 2.544,2.078 -0.037,0.59 -0.366,5.932 -2.511,6.948 -3.37,1.597 -15.634,1.048 -19.861,-0.256 -19.177,-5.914 -27.283,-22.497 -62.897,-7.166 -6.617,2.848 -29.72,17.208 -50.636,-2.046 -5.691,-5.24 -5.252,-8.591 -4.944,-12.47 z"
   style="clip-rule:evenodd;display:inline;fill:#9b4111;fill-rule:evenodd;stroke-linejoin:round;stroke-miterlimit:2"
   id="path19" /><path
   d="m 548.53,283.056 c 30.416,-0.039 42.095,-25.354 73.777,-9.175 17.929,9.156 18.194,9.14 33.206,9.55 4.289,0.117 -3.288,6.121 -0.85,8.934 3.305,3.814 3.501,4.626 0.303,8.507 -2.833,3.436 5.09,7.252 -3.346,11.888 -3.435,1.888 2.24,9.642 -5.079,10.983 -5.809,1.064 -3.239,7.217 -9.088,6.062 -3.64,-0.718 -4.078,-0.576 -5.935,2.708 -3.097,5.478 -7.577,-2.311 -11.08,1.939 -4.555,5.525 -8.174,-1.557 -10.565,0.544 -5.702,5.009 -6.825,4.572 -13.315,0.41 -3.45,-2.213 -5.804,7.028 -13.128,1.176 -3.763,-3.007 -6.429,5.692 -11.793,-0.197 -3.726,-4.091 -6.106,2.872 -9.935,-1.089 -2.483,-2.569 -2.779,-2.88 -6.132,-1.618 -4.302,1.619 -5.781,-3.879 -8.008,-4.426 -3.359,-0.824 -3.562,-0.719 -5.228,-3.677 -1.598,-2.84 -9.125,-1.471 -8.252,-8.12 0.434,-3.308 0.462,-3.71 -2.382,-5.301 -5.929,-3.319 1.517,-9.598 -0.511,-11.341 -3.506,-3.014 -4.894,-3.293 -2.793,-7.377 0.442,-0.861 3.461,-2.654 1.793,-4.685 -1.41726,-1.72512 -2.68775,-2.8225 -1.92078,-3.4917 0.23202,-0.20244 0.6505,-0.3657 1.30778,-0.4953 0.44,-0.087 4.981,-0.982 4.559,-3.255 -0.395,-2.13 -1.734,-3.343 0.373,-3.116 2.17,0.234 1.345,2.829 14.022,4.663 z"
   style="fill:#fdfdfd"
   id="path8"
   sodipodi:nodetypes="ccsccccccccccccccccccccscccc" />
    </g>
    
    
    
    
    
    <g
   transform="matrix(1.375,0,0,1.375,-714.29644,-296.7246)"
   id="g14">
        <path
   d="m 623.55,225.214 c 4.361,1.793 28.231,8.63 38.202,40.214 0.877,2.778 0.666,2.768 1.214,6.036 -1.482,-0.848 -1.108,-1.257 -2.544,-2.078 -0.065,-0.037 -0.067,-0.038 -0.928,0.092 -16.502,2.494 -20.382,-1.452 -39.777,-10.38 -38.177,-17.574 -62.741,32.177 -97.6,-2.624 1.883,-6.14 2.635,-5.952 9.104,-12.371 0.309,0.586 1.106,0.811 1.415,1.397 0.178,0.335 -0.622,1.005 0.825,1.215 8.511,1.233 8.588,-0.121 17.031,1.818 13.931,5.218 23.671,15.149 25.225,9.041 0.852,-3.353 -2.685,-0.259 -7.928,-3.49 -0.788,-0.486 -6.862,-4.643 -11.511,-6.366 -1.865,-0.691 -0.762,-1.282 -0.744,-2.057 7.116,0.468 12.758,9.038 19.683,2.5 5.236,-4.943 7.524,3.649 10.242,4.46 4.008,1.195 0.181,-4.719 -0.039,-5.058 -11.396,-17.611 12.949,-3.271 14.059,-2.988 2.199,0.561 2.133,0.628 3.757,2.139 1.412,2.392 1.378,2.393 1.525,2.583 4.74,6.142 9.482,1.341 6.622,0.445 -1.635,-0.513 -2.6,0.482 -5.589,-4.979 2.48,-1.549 7.602,-5.815 11.735,-5.946 14.941,-0.474 12.025,16.626 15.989,17.646 3.685,0.948 -1.491,-10.469 -1.012,-11.952 0.14,-0.434 7.561,0.391 8.471,-3.916 1.658,-7.842 -11.122,0.476 -18.119,-13.256 0.231,-0.708 0.461,-1.417 0.692,-2.125 z"
   style="fill:#c76a27"
   id="path14" />
    </g>
    
    
    
    <g
   transform="matrix(1.375,0,0,1.375,-714.29644,-296.7246)"
   id="g18">
        <path
   d="m 589.943,225.091 c 8.266,8.88 21.828,3.39 24.833,2.759 6.138,0.205 6.109,1.125 6.576,0.874 0.601,-0.322 0.905,-1.063 1.506,-1.385 6.997,13.732 19.777,5.414 18.119,13.256 -0.91,4.307 -8.331,3.482 -8.471,3.916 -0.479,1.483 4.697,12.9 1.012,11.952 -3.964,-1.02 -1.048,-18.12 -15.989,-17.646 -4.133,0.131 -9.255,4.397 -11.735,5.946 -0.563,0.319 -0.567,-0.371 -1.17,-0.029 -0.168,0.095 -0.103,0.146 -1.388,1.98 -1.624,-1.511 -1.558,-1.578 -3.757,-2.139 -1.11,-0.283 -25.455,-14.623 -14.059,2.988 0.22,0.339 4.047,6.253 0.039,5.058 -2.718,-0.811 -5.006,-9.403 -10.242,-4.46 -6.925,6.538 -12.567,-2.032 -19.683,-2.5 -2.932,0.753 -2.951,0.76 -5.042,2.872 -8.443,-1.939 -8.52,-0.585 -17.031,-1.818 -1.447,-0.21 -0.647,-0.88 -0.825,-1.215 -0.309,-0.586 -1.106,-0.811 -1.415,-1.397 0.674,-0.637 1.348,-1.274 2.022,-1.911 l 1.257,1.457 1,-0.524 1,-0.999 1,-0.993 c 0.871,-0.259 1.214,-1.506 2.867,0.496 1.219,1.476 1.168,1.608 3.048,1.853 0.047,-1.355 0.373,-10.797 14.113,-9.386 8.298,0.852 8.613,0.696 15.193,-4.459 7.217,-5.785 10.446,-4.53 15.779,-3.403 z"
   style="fill:#862d09"
   id="path18" />
    </g>
    
    
    
    
    
    
    
    
    
    
    
    
    
    
    
    
    
    
    
    
    
    
    
    
    
    
    
    
    <g
   transform="matrix(1.375,0,0,1.375,-714.29644,-296.7246)"
   id="g47">
        <path
   d="m 568.451,223.114 1.049,1.814 c -0.254,0.452 -1.192,0.12 -1.446,0.572 -0.823,1.462 1.344,0.306 4.667,4.137 -6.58,5.155 -6.895,5.311 -15.193,4.459 -13.74,-1.411 -14.066,8.031 -14.113,9.386 -1.88,-0.245 -1.829,-0.377 -3.048,-1.853 -1.653,-2.002 -1.996,-0.755 -2.867,-0.496 l -1,0.993 -1,0.999 -1,0.524 -1.257,-1.457 c 10.299,-9.077 15.722,-11.789 26.114,-16.101 2.138,3.038 1.465,4.441 5.13,4.285 5.024,-0.214 -2.892,-4.969 -3.102,-5.126 0.561,-0.184 0.564,-0.118 7.066,-2.136 z"
   style="fill:#c16a2f"
   id="path47" />
    </g>
    
    <g
   transform="matrix(1.375,0,0,1.375,-714.29644,-296.7246)"
   id="g49">
        <path
   d="m 586.424,220.227 c 15.723,-0.259 15.693,-0.171 31.157,2.893 l -1.081,1.765 -1,-0.134 -1,-0.519 c -0.174,0.912 -1.164,-0.631 -1.335,0.268 -0.024,0.126 0.189,-0.013 1.054,1.204 1.204,1.693 1.281,1.644 1.307,1.821 0.04,0.27 -0.789,0.055 -0.75,0.325 -3.005,0.631 -16.567,6.121 -24.833,-2.759 -0.209,-0.433 -0.737,-1.526 -3.519,-4.864 z"
   style="fill:#c36b2f"
   id="path49" />
    </g>
    
    
    
    
    
    
    
    
    
    
    
    
    
    
    
    
    
    
    
    <g
   transform="matrix(1.375,0,0,1.375,-714.29644,-296.7246)"
   id="g69">
        <path
   d="m 561.385,315.753 c -6.504,-4.878 0.773,-9.811 9.153,-7.359 5.565,1.628 4.782,11.565 -9.153,7.359 z"
   style="fill:#f2a3a2"
   id="path69" />
    </g>
    <g
   transform="matrix(1.375,0,0,1.375,-714.29644,-296.7246)"
   id="g70">
        <path
   d="m 622.488,316.905 c -2.781,-0.32 -2.77,-0.282 -3.004,-0.346 -13.078,-3.584 4.377,-13.927 9.984,-6.037 3.691,5.194 -6.228,6.299 -6.98,6.383 z"
   style="fill:#f2a1a2"
   id="path70" />
    </g>
    
    
    
    
    
    
    <g
   transform="matrix(1.375,0,0,1.375,-714.29644,-296.7246)"
   id="g77">
        <path
   d="m 586.424,220.227 c 2.782,3.338 3.31,4.431 3.519,4.864 l -1.443,1.143 c -5.333,-1.127 -8.562,-2.382 -15.779,3.403 -3.323,-3.831 -5.49,-2.675 -4.667,-4.137 0.254,-0.452 1.192,-0.12 1.446,-0.572 l -1.049,-1.814 c 8.931,-1.803 8.828,-1.822 17.973,-2.887 z"
   style="fill:#9e4b1a"
   id="path77" />
    </g>
    <g
   transform="matrix(1.375,0,0,1.375,-714.29644,-296.7246)"
   id="g78">
        <path
   d="m 615.461,293.179 c 9.144,1.046 5.971,8.114 5.139,9.394 -4.886,7.515 -17.869,-5.282 -5.139,-9.394 z"
   style="fill:#020202"
   id="path78" />
    </g>
    
    
    
    
    
    
    <g
   transform="matrix(1.375,0,0,1.375,-714.29644,-296.7246)"
   id="g85">
        <path
   d="m 572.47,293.189 c 8.98,1.154 5.837,8.176 4.582,9.894 -4.702,6.439 -17.277,-6.141 -4.582,-9.894 z"
   style="fill:#010102"
   id="path85" />
    </g>
    
    
    
    
    
    
    <g
   transform="matrix(1.375,0,0,1.375,-714.29644,-296.7246)"
   id="g92">
        <path
   d="m 555.534,245.661 c -0.018,0.775 -1.121,1.366 0.744,2.057 4.649,1.723 10.723,5.88 11.511,6.366 5.243,3.231 8.78,0.137 7.928,3.49 -1.554,6.108 -11.294,-3.823 -25.225,-9.041 2.091,-2.112 2.11,-2.119 5.042,-2.872 z"
   style="fill:#9d410c"
   id="path92" />
    </g>
    
    
    <g
   transform="matrix(1.375,0,0,1.375,-714.29644,-296.7246)"
   id="g95">
        <path
   d="m 595.585,311.927 c 3.245,-1.165 2.566,-1.973 5.031,-4.293 1.373,-1.292 3.902,-0.006 2.581,2.732 -5.5,11.396 -20.338,1.909 -17.41,-2.658 2.776,-4.329 2.521,4.09 9.798,4.219 z"
   style="fill:#040404"
   id="path95" />
    </g>
    
    
    
    
    
    
    
    
    <g
   transform="matrix(1.375,0,0,1.375,-714.29644,-296.7246)"
   id="g104">
        <path
   d="m 578.447,229.396 c 2.776,-0.928 2.71,-1.091 4.043,-1.137 0.297,-0.01 5.611,1.934 -0.901,3.599 -4.78,1.223 -10.131,7.616 -10.236,3.662 -0.059,-2.194 0.887,-1.73 7.094,-6.124 z"
   style="fill:#e09971"
   id="path104" />
    </g>
    <g
   transform="matrix(1.375,0,0,1.375,-714.29644,-296.7246)"
   id="g105">
        <path
   d="m 617.581,223.12 c 1.99,0.698 3.979,1.396 5.969,2.094 -0.231,0.708 -0.461,1.417 -0.692,2.125 -0.601,0.322 -0.905,1.063 -1.506,1.385 -0.467,0.251 -0.438,-0.669 -6.576,-0.874 -0.039,-0.27 0.79,-0.055 0.75,-0.325 -0.026,-0.177 -0.103,-0.128 -1.307,-1.821 -0.865,-1.217 -1.078,-1.078 -1.054,-1.204 0.171,-0.899 1.161,0.644 1.335,-0.268 l 1,0.519 1,0.134 z"
   style="fill:#92451c"
   id="path105" />
    </g>
    <g
   transform="matrix(1.375,0,0,1.375,-714.29644,-296.7246)"
   id="g106">
        <path
   d="m 553.445,237.073 c 7.243,-0.533 5.77,2.454 5.396,2.763 -0.088,0.073 -9.137,1.324 -9.182,1.309 -0.423,-0.137 -2.877,-2.522 3.786,-4.072 z"
   style="fill:#d17e53"
   id="path106" />
    </g>
    <g
   transform="matrix(1.375,0,0,1.375,-714.29644,-296.7246)"
   id="g107">
        <path
   d="m 605.794,244.763 c 2.989,5.461 3.954,4.466 5.589,4.979 2.86,0.896 -1.882,5.697 -6.622,-0.445 -0.147,-0.19 -0.113,-0.191 -1.525,-2.583 1.285,-1.834 1.22,-1.885 1.388,-1.98 0.603,-0.342 0.607,0.348 1.17,0.029 z"
   style="fill:#a5450b"
   id="path107" />
    </g>
    
    
    <g
   transform="matrix(1.375,0,0,1.375,-714.29644,-296.7246)"
   id="g110">
        <path
   d="m 590.507,243.34 c 7.612,2.245 5.651,5.265 4.082,5.52 -1.656,0.269 -12.206,-4.178 -4.082,-5.52 z"
   style="fill:#883004"
   id="path110" />
    </g>
    
    <g
   transform="matrix(1.375,0,0,1.375,-714.29644,-296.7246)"
   id="g112">
        <path
   d="m 547.714,320.439 c -0.49,-6.934 3.128,-2.834 3.325,-2.562 2.65,3.644 2.92,3.42 3.097,3.767 0.484,0.95 -2.559,6.288 -6.422,-1.205 z"
   style="fill:#d9d7ce"
   id="path112" />
    </g>
    
    
    
    
    
    
    
    
    
    
    
    
    
    <g
   transform="matrix(1.375,0,0,1.375,-714.29644,-296.7246)"
   id="g126">
        <path
   d="m 647.791,305.526 c -2.111,7.413 -6.199,4.15 -5.555,1.897 0.121,-0.423 1.814,-4.08 3.337,-4.592 2.135,-0.718 1.689,0.531 2.218,2.695 z"
   style="fill:#dbd8d1"
   id="path126" />
    </g>
    
    <g
   transform="matrix(1.375,0,0,1.375,-710.09644,-280.7106)"
   id="g128">
        <path
   d="m 537.126,295.694 c -0.12,-0.387 -1.243,-4.029 0.457,-5.05 2.199,-1.321 5.572,5.487 3.944,6.886 -2.092,1.798 -4.197,-1.514 -4.401,-1.836 z"
   style="fill:#dbdad0"
   id="path128" />
    </g>
    <g
   transform="matrix(1.375,0,0,1.375,-714.29644,-296.7246)"
   id="g129">
        <path
   d="m 636.421,322.167 c -9.355,1.061 2.19,-8.473 3.713,-4.494 0.992,2.591 -3.281,4.319 -3.713,4.494 z"
   style="fill:#d9d6cd"
   id="path129" />
    </g>
    
    
    
    
    
    
    
    
    
    
    
    
    
    
    
    
    
    <g
   transform="matrix(1.375,0,0,1.375,-717.29644,-295.3896)"
   id="g147">
        <path
   d="m 544.98395,288.6241 c 6.699,-3.321 2.254,4.52 1.902,4.884 -1.216,1.256 -6.577,0.961 -1.902,-4.884 z"
   style="fill:#deded6"
   id="path147" />
    </g>
    
    
    <g
   transform="matrix(1.375,0,0,1.375,-714.29644,-296.7246)"
   id="g150">
        <path
   d="m 561.385,225.25 c 0.21,0.157 8.126,4.912 3.102,5.126 -3.665,0.156 -2.992,-1.247 -5.13,-4.285 0.676,-0.28 1.352,-0.561 2.028,-0.841 z"
   style="fill:#a24c15"
   id="path150" />
    </g>
    <g
   transform="matrix(1.375,0,0,1.375,-714.29644,-296.7246)"
   id="g151">
        <path
   d="m 643.303,250.093 c -6.769,1.604 -3.215,-2.69 -2.933,-2.817 3.318,-1.491 5.332,0.147 2.933,2.817 z"
   style="fill:#943705"
   id="path151" />
    </g>
    <g
   transform="matrix(1.375,0,0,1.375,-714.29644,-296.7246)"
   id="g152">
        <path
   d="m 603.539,224.362 c 0.24,0.131 6.047,3.317 -0.029,3.415 -1.539,0.025 -2.954,-0.741 -3.142,-1.223 -0.981,-2.507 0.457,-2.31 3.171,-2.192 z"
   style="fill:#8b3203"
   id="path152" />
    </g>
    <g
   transform="matrix(1.375,0,0,1.375,-714.29644,-296.7246)"
   id="g153">
        <path
   d="m 620.465,243.108 c 2.867,0.682 3.885,2.431 1.019,3.341 -0.267,0.085 -10.039,-0.467 -1.019,-3.341 z"
   style="fill:#943504"
   id="path153" />
    </g>
    <g
   transform="matrix(1.375,0,0,1.375,-714.29644,-296.7246)"
   id="g154">
        <path
   d="m 551.322,257.4 c -4.396,3.691 -2.89,-1.659 -1.943,-2.118 1.886,-0.915 2.135,-0.011 1.943,2.118 z"
   style="fill:#a03f02"
   id="path154" />
    </g>
    
    
</svg>
