<?xml version="1.0" encoding="UTF-8" standalone="no"?>
<svg
   width="203.49181"
   height="173.60124"
   viewBox="0 0 203.49181 173.60125"
   version="1.1"
   xml:space="preserve"
   style="clip-rule:evenodd;fill-rule:evenodd;stroke-linejoin:round;stroke-miterlimit:2"
   id="svg156"
   sodipodi:docname="salmon.svg"
   xmlns:inkscape="http://www.inkscape.org/namespaces/inkscape"
   xmlns:sodipodi="http://sodipodi.sourceforge.net/DTD/sodipodi-0.dtd"
   xmlns="http://www.w3.org/2000/svg"
   xmlns:svg="http://www.w3.org/2000/svg"><defs
   id="defs156" /><sodipodi:namedview
   id="namedview156"
   pagecolor="#ffffff"
   bordercolor="#000000"
   borderopacity="0.25"
   inkscape:showpageshadow="2"
   inkscape:pageopacity="0.0"
   inkscape:pagecheckerboard="0"
   inkscape:deskcolor="#d1d1d1"><inkscape:page
     x="0"
     y="0"
     width="203.49181"
     height="173.60126"
     id="page1"
     margin="0"
     bleed="0" /></sodipodi:namedview>
    
    
    
    <g
   transform="matrix(1.375,0,0,1.375,-289.84386,-297.46778)"
   id="g4">
        <path
   d="m 210.934,257.568 c 12.908,-61.988 158.583,-50.574 147.225,10.862 -1.508,8.156 -6.566,6.833 -5.554,15.064 0.375,3.053 -2.17,6.169 -1.401,8.119 2.096,5.313 1.975,5.49 -0.039,10.769 -1.396,3.658 3.178,5.593 -3.366,12.423 -2.43,2.537 -0.626,9.351 -6.174,11.933 -3.27,1.522 -3.175,1.61 -5.51,4.385 -3.899,4.633 -6.268,0.646 -10.921,5.044 -5.017,4.742 -7.34,-0.164 -12.82,3.118 -4.446,2.662 -7.742,-0.526 -10.919,1.131 -10.857,5.664 -11.765,-1.728 -15.896,0.208 -6.393,2.996 -6.629,1.984 -12.152,0.278 -3.029,-0.935 -3.593,4.389 -11.931,-0.363 -2.681,-1.528 -6.679,0.767 -9.853,-1.248 -2.819,-1.789 -2.868,-1.686 -6.116,-1.511 -5.306,0.286 -6.669,-3.829 -9.163,-4.847 -4.885,-1.993 -3.86,-3.659 -8.783,-5.613 -8.548,-3.394 -3.53,-7.72 -8.679,-13.178 -5.266,-5.58 0.518,-7.586 -3.184,-14.73 -2.258,-4.358 1.563,-8.399 0.655,-10.852 -1.849,-4.99 -0.901,-5.077 -0.32,-9.096 0.692,-4.786 -6.297,-3.681 -5.099,-21.896 z"
   style="fill:#0a0303"
   id="path4" />
    </g>
    
    
    
    
    <g
   transform="matrix(1.375,0,0,1.375,-289.84386,-297.46778)"
   id="g9">
        <path
   d="m 274.425,275.06 c 38.992,-6.051 52.65,12.81 70.033,8.254 8.524,-2.234 1.595,6.017 1.333,6.38 -2.049,2.849 6.13,5.085 1.489,10.609 -3.724,4.433 3.641,7.942 -2.949,11.906 -2.728,1.641 -2.479,2.11 -1.956,5.305 1.004,6.13 -6.997,5.803 -7.882,7.983 -2.116,5.218 -3.283,4.67 -7.954,3.8 -3.355,-0.625 -4.169,7.654 -9.811,4.763 -2.908,-1.49 -3.327,-1.293 -5.572,1.084 -3.876,4.103 -7.66,-2.538 -10.57,0.436 -8.064,8.243 -11.933,-3.205 -15.806,0.228 -7.608,6.745 -8.499,-0.645 -12.222,-0.075 -3.39,0.519 -4.09,5.707 -10.255,-0.043 -2.663,-2.484 -6.484,2.943 -9.501,-0.499 -2.405,-2.744 -2.799,-2.752 -6.243,-1.514 -3.998,1.437 -5.501,-4.05 -8.009,-4.505 -3.732,-0.676 -3.683,-1.059 -5.516,-4.378 -1.588,-2.876 -9.198,1.431 -7.257,-9.236 0.694,-3.81 -7.95,-4.32 -4.493,-10.19 1.779,-3.019 1.883,-3.506 -0.668,-5.985 -3.753,-3.647 1.386,-8.386 1.485,-8.95 0.106,-0.598 -5.781,-9.906 -0.656,-7.785 20.123,8.332 20.301,-0.943 52.98,-7.588 z"
   style="fill:#fdfdfd"
   id="path9" />
    </g>
    
    
    
    <g
   transform="matrix(1.375,0,0,1.375,-289.84386,-297.46778)"
   id="g13">
        <path
   d="m 316.696,225.023 c 2.387,0.753 18.092,5.712 27.662,14.629 1.463,1.364 10.965,10.217 10.166,22.85 -1.61,25.443 -22.808,16.507 -37.983,11.875 -49.685,-15.166 -73.856,14.315 -90.981,5.987 -17.94,-8.724 -8.302,-29.556 -7.202,-31.932 0.906,0.473 0.557,1.301 2.135,1.115 3.881,-0.457 29.373,0.474 45.09,11.712 2.809,1.238 2.868,0.846 5.837,0.134 9.697,-3.491 29.407,-0.763 31.938,-0.413 1.843,0.255 2.201,-0.708 2.455,-0.79 1.915,1.932 2.013,1.691 4.707,2.424 19.963,4.774 20.578,7.216 27.082,6.735 2.05,0.83 2.067,1.086 4.119,0.392 -7.196,-24.833 -14.172,-31.441 -22.01,-40.477 -0.937,-1.08 -0.906,-0.987 -2.08,-1.764 l -0.672,-1 z"
   style="fill:#c4313b"
   id="path13" />
    </g>
    
    
    <g
   transform="matrix(1.375,0,0,1.375,-289.84386,-297.46778)"
   id="g16">
        <path
   d="m 247.494,226.488 c 1.324,1.053 1.094,1.742 4.074,1.533 17.899,-1.256 48.798,16.462 54.245,32.169 -0.254,0.082 -0.612,1.045 -2.455,0.79 -2.531,-0.35 -22.241,-3.078 -31.938,0.413 -2.532,-3.279 -17.78,-12.931 -39.918,-14.914 -5.45,-0.489 -6.834,1.559 -9.388,-3.326 7.568,-8.833 16.65,-13.193 25.38,-16.665 z"
   style="fill:#d13c45"
   id="path16" />
    </g>
    <g
   transform="matrix(1.375,0,0,1.375,-289.84386,-297.46778)"
   id="g17">
        <path
   d="m 305.562,222.045 0.938,1.77 1,0.405 c 1.468,1.069 5.951,2.53 15.792,14.481 6.408,7.782 14.352,24.356 14.31,30.648 -6.504,0.481 -7.119,-1.961 -27.082,-6.735 -0.359,-5.312 -15.348,-26.677 -38.952,-34.316 -9.341,-3.023 -9.348,-3.001 -11.068,-3.123 l -1,-0.495 -1.056,-1.453 c 18.653,-4.142 29.867,-3.944 47.118,-1.182 z"
   style="fill:#d03d45"
   id="path17" />
    </g>
    
    
    
    
    
    
    
    
    
    
    
    
    
    
    
    
    
    
    
    
    
    
    
    <g
   transform="matrix(1.375,0,0,1.375,-289.84386,-297.46778)"
   id="g41">
        <path
   d="m 258.444,223.227 1.056,1.453 1,0.495 c 1.72,0.122 1.727,0.1 11.068,3.123 23.604,7.639 38.593,29.004 38.952,34.316 -2.694,-0.733 -2.792,-0.492 -4.707,-2.424 -5.447,-15.707 -36.346,-33.425 -54.245,-32.169 -2.98,0.209 -2.75,-0.48 -4.074,-1.533 5.424,-1.858 5.384,-1.697 10.95,-3.261 z"
   style="fill:#ea646a"
   id="path41" />
    </g>
    
    
    
    
    
    
    
    
    
    
    
    <g
   transform="matrix(1.375,0,0,1.375,-289.84386,-297.46778)"
   id="g53">
        <path
   d="m 305.562,222.045 c 5.665,1.22 5.613,1.167 11.134,2.978 l 0.263,1.477 0.672,1 c 1.174,0.777 1.143,0.684 2.08,1.764 7.838,9.036 14.814,15.644 22.01,40.477 -2.052,0.694 -2.069,0.438 -4.119,-0.392 0.042,-6.292 -7.902,-22.866 -14.31,-30.648 C 313.451,226.75 308.968,225.289 307.5,224.22 l -1,-0.405 z"
   style="fill:#ea646b"
   id="path53" />
    </g>
    
    <g
   transform="matrix(1.375,0,0,1.375,-289.84386,-297.46778)"
   id="g55">
        <path
   d="m 222.114,243.153 c 2.554,4.885 3.938,2.837 9.388,3.326 22.138,1.983 37.386,11.635 39.918,14.914 -2.969,0.712 -3.028,1.104 -5.837,-0.134 -15.717,-11.238 -41.209,-12.169 -45.09,-11.712 -1.578,0.186 -1.229,-0.642 -2.135,-1.115 1.948,-2.955 2.005,-2.836 3.756,-5.279 z"
   style="fill:#e95f68"
   id="path55" />
    </g>
    
    
    
    
    
    
    
    
    
    <g
   transform="matrix(1.375,0,0,1.375,-289.84386,-297.46778)"
   id="g65">
        <path
   d="m 314.506,316.893 c -12.187,-0.735 -7.909,-8.176 -2.936,-9.015 7.246,-1.222 9.932,2.385 9.876,4.621 -0.087,3.421 -6.289,4.302 -6.94,4.394 z"
   style="fill:#f2a09f"
   id="path65" />
    </g>
    
    
    
    
    
    <g
   transform="matrix(1.375,0,0,1.375,-289.84386,-297.46778)"
   id="g71">
        <path
   d="m 261.56,308.275 c 14.952,7.699 -13.751,12.698 -11.033,3.232 1.362,-4.739 10.124,-3.373 11.033,-3.232 z"
   style="fill:#f3a7a5"
   id="path71" />
    </g>
    
    
    
    
    
    
    
    
    
    
    <g
   transform="matrix(1.375,0,0,1.375,-289.84386,-297.46778)"
   id="g82">
        <path
   d="m 264.514,293.157 c 12.768,3.315 1.317,17.395 -4.852,9.231 -1.932,-2.556 -0.601,-5.568 -0.407,-6.008 1.079,-2.442 4.774,-3.132 5.259,-3.223 z"
   style="fill:#020202"
   id="path82" />
    </g>
    
    <g
   transform="matrix(1.375,0,0,1.375,-289.84386,-297.46778)"
   id="g84">
        <path
   d="m 307.501,293.154 c 12.738,2.756 1.486,17.632 -4.758,9.183 -0.689,-0.933 -1.15,-3.417 -0.826,-4.745 0.943,-3.854 1.773,-3.373 5.584,-4.438 z"
   style="fill:#030202"
   id="path84" />
    </g>
    
    
    
    
    
    
    
    
    
    
    
    
    <g
   transform="matrix(1.375,0,0,1.375,-289.84386,-297.46778)"
   id="g97">
        <path
   d="m 286.457,312.053 c 0.369,-0.116 3.195,-1.011 4.167,-2.458 3.732,-5.553 4.114,0.006 3.783,0.867 -4.348,11.315 -21.545,1.263 -16.96,-3.019 3.439,-3.213 2.316,3.849 9.01,4.61 z"
   style="fill:#030303"
   id="path97" />
    </g>
    
    
    
    
    
    
    
    
    
    
    <g
   transform="matrix(1.375,0,0,1.375,-289.84386,-297.46778)"
   id="g108">
        <path
   d="m 242.739,318.339 c 0.318,0.338 5.355,5.694 0.753,5.746 -5.614,0.065 -6.243,-11.107 -0.753,-5.746 z"
   style="fill:#dcdbd4"
   id="path108" />
    </g>
    
    
    
    
    
    
    
    
    
    
    
    <g
   transform="matrix(1.375,0,0,1.375,-289.84386,-297.46778)"
   id="g120">
        <path
   d="m 327.461,317.435 c 6.812,-2.999 3.938,2.988 1.989,3.971 -0.317,0.16 -10.93,2.159 -1.989,-3.971 z"
   style="fill:#d8d5cd"
   id="path120" />
    </g>
    <g
   transform="matrix(1.375,0,0,1.375,-289.84386,-297.46778)"
   id="g121">
        <path
   d="m 335.733,303.718 c 6.202,-3.067 3.24,5.177 0.617,6.372 -0.466,0.213 -4.712,0.533 -0.617,-6.372 z"
   style="fill:#dcdcd4"
   id="path121" />
    </g>
    
    
    
    
    
    
    
    
    
    <g
   transform="matrix(1.375,0,0,1.375,-289.84386,-297.46778)"
   id="g131">
        <path
   d="m 266.539,325.434 c 6.323,4.73 -1.638,5.853 -3.988,3.025 -0.156,-0.188 -1.405,-1.69 -0.154,-3.047 0.921,-0.999 3.827,-0.078 4.142,0.022 z"
   style="fill:#d9d6cc"
   id="path131" />
    </g>
    
    
    <g
   transform="matrix(1.375,0,0,1.375,-289.84386,-297.46778)"
   id="g134">
        <path
   d="m 231.785,292.39 c 1.225,3.464 3.482,5.278 -0.256,5.441 -5.169,0.226 -4.735,-11.616 0.256,-5.441 z"
   style="fill:#dad7d1"
   id="path134" />
    </g>
    
    
    
    
    
    
    
    
    
    
    
    <g
   transform="matrix(1.375,0,0,1.375,-289.84386,-297.46778)"
   id="g146">
        <path
   d="m 237.317,310.21 c -8.021,1.892 -0.319,-9.011 1.905,-5.533 1.2,1.878 -1.602,5.176 -1.905,5.533 z"
   style="fill:#dad9d1"
   id="path146" />
    </g>
    
    
    
    
    
    
    
    
    
    
</svg>
