<?xml version="1.0" encoding="UTF-8" standalone="no"?>
<svg
   width="228.57474"
   height="173.97665"
   viewBox="0 0 228.57474 173.97666"
   version="1.1"
   xml:space="preserve"
   style="clip-rule:evenodd;fill-rule:evenodd;stroke-linejoin:round;stroke-miterlimit:2"
   id="svg156"
   sodipodi:docname="shrimp.svg"
   xmlns:inkscape="http://www.inkscape.org/namespaces/inkscape"
   xmlns:sodipodi="http://sodipodi.sourceforge.net/DTD/sodipodi-0.dtd"
   xmlns="http://www.w3.org/2000/svg"
   xmlns:svg="http://www.w3.org/2000/svg"><defs
   id="defs156" /><sodipodi:namedview
   id="namedview156"
   pagecolor="#ffffff"
   bordercolor="#000000"
   borderopacity="0.25"
   inkscape:showpageshadow="2"
   inkscape:pageopacity="0.0"
   inkscape:pagecheckerboard="0"
   inkscape:deskcolor="#d1d1d1"><inkscape:page
     x="0"
     y="0"
     width="228.57474"
     height="173.97665"
     id="page1"
     margin="0"
     bleed="0" /></sodipodi:namedview>
    <g
   transform="matrix(1.375,0,0,1.375,-239.19839,-237.19804)"
   id="g1">
        <path
   d="m 326.52563,238.9758 c -3.7992,1.15433 1.33492,8.46884 -1.40408,17.93584 -2.302,7.957 -9.448,-2.97 -10.488,1.851 -0.626,2.901 3.06,6.016 -3.126,12.657 -2.848,3.058 0.817,8.306 -6.739,12.02 -5.544,2.726 -4.364,6.241 -9.76,6.81 -3.424,0.362 -3.585,0.152 -6.101,2.564 -3.055,2.931 -8.162,1.817 -8.867,1.664 -2.609,-0.569 -4.839,3.266 -10.043,2.175 -6.697,-1.406 -8.535,4.658 -16.049,1.224 -6.616,-3.024 -7.105,3.072 -13.839,0.517 -2.939,-1.115 -2.966,-1.023 -5.997,-0.062 -6.506,2.061 -6.35,-2.488 -13.175,-1.668 -5.716,0.687 -5.161,-2.931 -10.972,-2.512 -5.053,0.365 -7.863,-4.146 -8.871,-4.565 -3.786,-1.576 -4.033,-1.234 -6.549,-4.385 -2.803,-3.51 -8.116,0.091 -9.38,-11.357 -0.279,-2.524 -6.012,-5.592 -4.353,-12.017 1.711,-6.627 -3.708,-6.748 -1.134,-13.083 2.485,-6.119 -2.993,-7.116 0.758,-12.569 0.773,-1.125 4.688,-3.462 0.417,-7.191 -23.223,-20.271 14.69,-63.956 77.133,-55.374 6.038,0.83 44.844,7.158 56.403,37.11 0.39,1.012 10.28129,7.33806 13.8744,10.45516 l 6.63336,5.8452 c 10.05606,12.2277 3.317,12.0384 0,13.03922 z"
   style="clip-rule:evenodd;fill:#080303;fill-rule:evenodd;stroke-linejoin:round;stroke-miterlimit:2"
   id="path1-6"
   sodipodi:nodetypes="ccccccccccccccccccccccccccc" />
    </g>
    
    
    
    
    <g
   transform="matrix(1.375,0,0,1.375,-501.41839,-295.91404)"
   id="g6">
        <path
   d="m 397.459,288.105 c 8.764,-1.402 11.039,-2.903 17.226,-6.258 30.124,-16.335 38.03,-21.232 72.929,-11.797 5.204,1.407 3.681,3.074 4.698,7.49 2.459,10.675 3.456,10.275 9.746,19.231 1.261,1.796 -1.647,4.487 -1.711,4.65 -1.505,3.803 5.078,6.509 -2.738,11.287 -3.564,2.179 1.968,8.247 -4.158,10.677 -3.171,1.258 -3.668,0.896 -5.027,4.075 -2.445,5.722 -7.526,-1.673 -10.282,3.878 -3.561,7.168 -8.518,-0.411 -11.229,2.524 -4.352,4.71 -5.424,2.724 -8.609,1.011 -2.734,-1.47 -6.684,6.877 -13.619,2.329 -3.151,-2.066 -3.673,-2.61 -6.534,-0.123 -5.424,4.715 -8.894,-3.349 -12.502,-0.406 -5.143,4.194 -7.96,-0.488 -9.031,-1.326 -2.322,-1.819 -5.261,3.323 -8.912,-0.074 -2.629,-2.445 -2.85,-2.935 -6.128,-1.582 -4.217,1.741 -5.88,-4.012 -8.004,-4.484 -3.948,-0.878 -3.802,-1.343 -6.084,-4.698 -1.594,-2.342 -9.133,1.577 -7.139,-9.039 0.703,-3.741 -6.891,-3.209 -5.063,-9.044 0.946,-3.021 4.212,-3.778 0.156,-6.86 -2.026,-1.54 -1.87,-5.361 -0.603,-6.79 2.175,-2.454 2.119,-2.948 0.091,-5.569 -1.822,-2.354 -0.531,-7.254 1.505,-6.474 5.136,1.967 3.407,7.62 21.022,7.372 z"
   style="fill:#fdfdfd"
   id="path6" />
    </g>
    
    
    
    
    
    
    
    
    
    
    
    
    
    
    
    <g
   transform="matrix(1.375,0,0,1.375,-501.41839,-295.91404)"
   id="g22">
        <path
   d="m 434.494,231.485 c 8.5,-0.288 8.417,0.632 16.974,0.534 0.285,-0.003 0.254,-0.068 3.436,-0.928 2.936,3.005 3.458,1.952 7.635,2.79 6.05,1.885 5.963,1.803 11.818,4.011 1.839,0.694 1.945,0.717 2.121,0.755 0.964,0.211 0.824,0.399 1.76,0.853 l 1.622,0.693 c 2.79,1.911 2.714,1.829 5.626,3.493 7.89,6.367 8.299,5.912 14.105,13.742 0.658,0.888 0.807,0.888 0.909,0.888 0.915,-0.002 0.463,-0.89 1.365,-0.892 0.281,3.067 0.293,3.006 -0.547,6.012 -5.466,-4.354 -7.35,-9.879 -15.993,-14.812 -3.464,-2.972 -3.354,-3.053 -3.837,-3.076 -3.562,-0.172 2.176,4.419 -6.11,17.237 l -0.878,-1.644 -1,-0.208 c -0.11,-0.819 -0.561,-0.759 -0.206,-1.538 6.336,-13.866 5.315,-18.629 -9.704,-21.003 -0.407,-0.193 -6.449,-3.067 -5.629,0.027 1.618,6.106 4.161,10.173 -0.506,23.352 l -3.031,0.245 c 0.141,-0.441 0.113,-0.433 1.346,-7.347 0.218,-1.378 1.451,-9.164 -1.863,-17.342 -1.613,-3.983 -16.868,-2.234 -18.334,-2.066 -1.112,0.067 -9.608,-1.282 -5.551,3.575 6.048,7.241 6.146,21.706 6.159,23.662 0.466,1.117 0.931,2.235 1.396,3.353 l -2.027,0.829 -1.05,-1.422 -1,0.56 c -0.234,-0.345 -0.976,0.027 -1.211,-0.318 -0.267,-0.395 0.338,-0.375 0.382,-5.953 0.117,-13.574 -6.671,-23.28 -12.225,-22.373 -3.437,0.561 -13.838,4.577 -15.02,5.033 -8.376,4.448 -8.186,5.5 -7.542,5.915 5.682,3.661 11.248,3.525 15.441,18.435 1.067,5.288 -0.369,5.631 2.306,10.256 -6.612,4.029 -10.093,5.127 -10.304,5.215 L 404.5,281.16 c -2.372,-3.342 -1.317,-3.686 -2.397,-7.627 4.405,-1.36 4.624,-0.938 8.103,-4.043 -0.508,-2.688 -0.231,-12.192 -15.618,-19.2 -3.246,-1.478 -10.883,7.91 -12.766,10.662 -0.217,0.228 -2.419,2.533 -3.25,2.219 -3.04,-1.149 0.955,-5.365 2.503,-7.892 2.146,-1.847 1.841,-2.142 8.162,-7.132 4.238,-3.345 -4.004,-13.618 1.665,-14.953 0.203,-0.048 2.481,8.547 2.689,9.263 0.929,3.195 8.636,-2.894 10.115,-3.787 0.428,-0.102 15.443,-4.769 16.785,-5.187 3.568,-1.109 -5.272,-6.975 -5.083,-9.754 0.041,-0.605 3.893,1.352 4.212,1.514 4.686,2.382 3.804,7.541 7.868,7.082 6.471,-0.732 6.445,-0.779 7.006,-0.84 z"
   style="fill:#dd6645"
   id="path22" />
    </g>
    
    
    
    
    
    <g
   transform="matrix(1.375,0,0,1.375,-500.79839,-296.34504)"
   id="g28">
        <path
   d="m 373.192,245.242 c 4.801,4.348 4.894,4.256 7.883,10.037 -1.548,2.527 -5.543,6.743 -2.503,7.892 0.831,0.314 3.033,-1.991 3.25,-2.219 3.932,3.612 7.339,1.59 10.702,2.453 7.522,1.928 8.908,8.779 9.579,10.128 1.08,3.941 0.025,4.285 2.397,7.627 l 0.827,0.868 c -22.307,8.119 -27.594,-7.434 -28.366,-9.705 -0.793,-2.334 -15.224,-7.778 -3.769,-27.081 z"
   style="fill:#f8ddd3"
   id="path28" />
    </g>
    
    
    
    
    <g
   transform="matrix(1.375,0,0,1.375,-501.41839,-295.91404)"
   id="g33">
        <path
   d="m 429.517,220.268 0.353,1.232 c 3.78,6.546 4.414,9.13 4.624,9.985 -0.561,0.061 -0.535,0.108 -7.006,0.84 -4.064,0.459 -3.182,-4.7 -7.868,-7.082 -0.319,-0.162 -4.171,-2.119 -4.212,-1.514 -0.189,2.779 8.651,8.645 5.083,9.754 -1.342,0.418 -16.357,5.085 -16.785,5.187 -3.239,-6.333 -3.847,-5.877 -9.298,-10.468 12.359,-4.694 12.755,-6.444 35.109,-7.934 z"
   style="fill:#fab6a7"
   id="path33" />
    </g>
    <g
   transform="matrix(1.375,0,0,1.375,-501.41839,-295.91404)"
   id="g34">
        <path
   d="m 405.426,242.207 c 1.182,-0.456 11.583,-4.472 15.02,-5.033 5.554,-0.907 12.342,8.799 12.225,22.373 -5.305,0.828 -5.713,0.563 -8.922,4.944 l -0.546,-2.985 c -3.117,-10.453 -4.383,-10.083 -10.497,-12.467 -4.821,-1.88 -5.902,-6.758 -6.164,-7.02 -0.267,-0.267 -0.85,0.455 -1.116,0.188 z"
   style="fill:#fca08d"
   id="path34" />
    </g>
    <g
   transform="matrix(1.375,0,0,1.375,-501.41839,-295.91404)"
   id="g35">
        <path
   d="m 394.408,228.202 c 5.451,4.591 6.059,4.135 9.298,10.468 -1.479,0.893 -9.186,6.982 -10.115,3.787 -0.208,-0.716 -2.486,-9.311 -2.689,-9.263 -5.669,1.335 2.573,11.608 -1.665,14.953 -6.321,4.99 -6.016,5.285 -8.162,7.132 -2.989,-5.781 -3.082,-5.689 -7.883,-10.037 6.293,-8.755 10.378,-11.78 21.216,-17.04 z"
   style="fill:#fab6a6"
   id="path35" />
    </g>
    <g
   transform="matrix(1.375,0,0,1.375,-501.41839,-295.91404)"
   id="g36">
        <path
   d="m 381.822,260.952 c 1.883,-2.752 9.52,-12.14 12.766,-10.662 15.387,7.008 15.11,16.512 15.618,19.2 -3.479,3.105 -3.698,2.683 -8.103,4.043 -0.671,-1.349 -2.057,-8.2 -9.579,-10.128 -3.363,-0.863 -6.77,1.159 -10.702,-2.453 z"
   style="fill:#fc9e8b"
   id="path36" />
    </g>
    <g
   transform="matrix(1.375,0,0,1.375,-501.41839,-295.91404)"
   id="g37">
        <path
   d="m 435.573,235.261 c 1.284,6.65 3.579,5.744 6.618,7.707 4.912,3.174 4.366,13.066 4.395,13.546 0.623,4.668 0.467,4.66 1.052,6.367 -5.072,1.379 -5.003,1.35 -10.061,2.97 -0.465,-1.118 -0.93,-2.236 -1.396,-3.353 -0.013,-1.956 -0.111,-16.421 -6.159,-23.662 -4.057,-4.857 4.439,-3.508 5.551,-3.575 z"
   style="fill:#fadbcf"
   id="path37" />
    </g>
    
    <g
   transform="matrix(1.375,0,0,1.375,-501.41839,-295.91404)"
   id="g39">
        <path
   d="m 405.426,242.207 c 0.266,0.267 0.849,-0.455 1.116,-0.188 0.262,0.262 1.343,5.14 6.164,7.02 6.114,2.384 7.38,2.014 10.497,12.467 l -1.101,0.994 c -2.849,3.65 -3.294,3.027 -7.602,4.473 l -1.175,-0.416 c -4.193,-14.91 -9.759,-14.774 -15.441,-18.435 -0.644,-0.415 -0.834,-1.467 7.542,-5.915 z"
   style="fill:#fde2d9"
   id="path39" />
    </g>
    <g
   transform="matrix(1.375,0,0,1.375,-501.41839,-295.91404)"
   id="g40">
        <path
   d="m 435.573,235.261 c 1.466,-0.168 16.721,-1.917 18.334,2.066 3.314,8.178 2.081,15.964 1.863,17.342 -4.922,0.028 -5.486,-1.472 -9.184,1.845 -0.029,-0.48 0.517,-10.372 -4.395,-13.546 -3.039,-1.963 -5.334,-1.057 -6.618,-7.707 z"
   style="fill:#fc9d89"
   id="path40" />
    </g>
    
    <g
   transform="matrix(1.375,0,0,1.375,-501.41839,-295.91404)"
   id="g42">
        <path
   d="m 499.404,270.257 1.096,1.343 1,-0.283 c 0.367,0.18 1.244,-0.698 2.972,3.193 0.13,0.293 0.113,0.635 0.233,0.932 0.229,0.562 1.872,4.603 3.029,6.956 2.336,4.75 3.784,1.245 4.16,1.008 0.24,1.064 4.68,20.743 -4.275,12.949 -10.444,-9.091 -13.574,-24.509 -10.986,-25.458 0.213,-0.079 0.205,-0.048 2.771,-0.64 z"
   style="fill:#e96332"
   id="path42" />
    </g>
    
    
    
    
    
    
    
    <g
   transform="matrix(1.375,0,0,1.375,-501.41839,-295.91404)"
   id="g50">
        <path
   d="m 429.517,220.268 c 9.042,-0.017 8.998,-0.133 18.021,0.808 0.243,0.696 -0.036,1.505 0.207,2.201 0.415,1.188 4.504,-0.046 7.159,7.814 -3.182,0.86 -3.151,0.925 -3.436,0.928 -8.557,0.098 -8.474,-0.822 -16.974,-0.534 -0.21,-0.855 -0.844,-3.439 -4.624,-9.985 z"
   style="fill:#f89e8c"
   id="path50" />
    </g>
    <g
   transform="matrix(1.375,0,0,1.375,-501.41839,-295.91404)"
   id="g51">
        <path
   d="m 518.631,267.329 c 0.952,0.825 15.868,13.76 7.899,13.617 -13.607,-0.244 -11.845,-4.534 -20.079,-15.407 -1.831,-2.418 -0.527,-4.895 1.116,-4.385 4.504,1.398 10.245,5.579 11.064,6.175 z"
   style="fill:#e66638"
   id="path51"
   sodipodi:insensitive="true" />
    </g>
    
    
    <g
   transform="matrix(1.375,0,0,1.375,-501.41839,-295.91404)"
   id="g54">
        <path
   d="m 463.59,238.392 c 15.019,2.374 16.04,7.137 9.704,21.003 -0.355,0.779 0.096,0.719 0.206,1.538 l 1,0.208 0.878,1.644 c -4.002,-0.622 -3.916,-0.536 -7.882,-0.879 -1.066,-2.833 -1.473,-2.76 -1.135,-4.437 0.628,-3.128 1.097,-2.952 1.641,-6.076 1.231,-7.06 -3.846,-5.924 -4.412,-13.001 z"
   style="fill:#f99681"
   id="path54" />
    </g>
    
    
    
    <g
   transform="matrix(1.375,0,0,1.375,-501.41839,-295.91404)"
   id="g58">
        <path
   d="m 485.325,248.624 c 8.643,4.933 10.527,10.458 15.993,14.812 -3.882,6.155 -10.251,3.23 -17.836,1.181 0.835,-2.863 0.569,-2.856 1.843,-5.282 0.978,-4.808 -0.523,-5.881 0,-10.711 z"
   style="fill:#f69480"
   id="path58" />
    </g>
    <g
   transform="matrix(1.375,0,0,1.375,-501.41839,-295.91404)"
   id="g59">
        <path
   d="m 463.59,238.392 c 0.566,7.077 5.643,5.941 4.412,13.001 -0.544,3.124 -1.013,2.948 -1.641,6.076 -0.338,1.677 0.069,1.604 1.135,4.437 -5.063,-0.226 -4.954,-0.319 -10.041,-0.135 4.667,-13.179 2.124,-17.246 0.506,-23.352 -0.82,-3.094 5.222,-0.22 5.629,-0.027 z"
   style="fill:#fbdacd"
   id="path59" />
    </g>
    
    
    
    <g
   transform="matrix(1.375,0,0,1.375,-501.41839,-295.91404)"
   id="g63">
        <path
   d="m 463.668,225.035 c 1.32,0.471 12.162,4.339 16.041,7.038 -0.268,0.569 -0.981,0.845 -1.249,1.414 -0.459,0.975 1.231,6.184 1.4,6.706 l -1.622,-0.693 c -0.936,-0.454 -0.796,-0.642 -1.76,-0.853 -0.176,-0.038 -0.282,-0.061 -2.121,-0.755 -5.855,-2.208 -5.768,-2.126 -11.818,-4.011 0.004,-0.561 1.021,-0.774 1.025,-1.336 0.003,-0.411 -0.652,-0.227 -1.16,-5.01 -0.097,-0.915 -0.074,-0.961 -0.036,-1.035 0.483,-0.956 0.85,-0.575 1.3,-1.465 z"
   style="fill:#f69e89"
   id="path63" />
    </g>
    
    
    <g
   transform="matrix(1.375,0,0,1.375,-501.41839,-295.91404)"
   id="g66">
        <path
   d="m 485.325,248.624 c -0.523,4.83 0.978,5.903 0,10.711 -1.274,2.426 -1.008,2.419 -1.843,5.282 -2.701,-0.611 -5.402,-1.221 -8.104,-1.832 8.286,-12.818 2.548,-17.409 6.11,-17.237 0.483,0.023 0.373,0.104 3.837,3.076 z"
   style="fill:#fadbcb"
   id="path66" />
    </g>
    
    <g
   transform="matrix(1.375,0,0,1.375,-501.41839,-295.91404)"
   id="g68">
        <path
   d="m 410.465,316.77 c -12.184,-3.296 -2.417,-11.49 6.098,-8.433 2.691,0.966 8.306,8.755 -6.098,8.433 z"
   style="fill:#f3a2a2"
   id="path68" />
    </g>
    
    
    
    <g
   transform="matrix(1.375,0,0,1.375,-501.41839,-295.91404)"
   id="g72">
        <path
   d="m 468.494,316.927 c -0.739,-0.08 -8.983,-0.977 -7.435,-5.578 1.285,-3.82 7.676,-3.596 8.406,-3.571 5.386,0.188 11.26,7.655 -0.971,9.149 z"
   style="fill:#f2a1a0"
   id="path72" />
    </g>
    
    
    
    <g
   transform="matrix(1.375,0,0,1.375,-501.41839,-295.91404)"
   id="g76">
        <path
   d="m 447.538,221.076 c 11.206,2.255 11.089,2.352 16.13,3.959 -0.45,0.89 -0.817,0.509 -1.3,1.465 -0.038,0.074 -0.061,0.12 0.036,1.035 0.508,4.783 1.163,4.599 1.16,5.01 -0.004,0.562 -1.021,0.775 -1.025,1.336 -4.177,-0.838 -4.699,0.215 -7.635,-2.79 -2.655,-7.86 -6.744,-6.626 -7.159,-7.814 -0.243,-0.696 0.036,-1.505 -0.207,-2.201 z"
   style="fill:#fbe2d9"
   id="path76" />
    </g>
    
    
    <g
   transform="matrix(1.375,0,0,1.375,-501.41839,-295.91404)"
   id="g79">
        <path
   d="m 461.469,293.216 c 3.632,0.402 4.115,0.099 5.829,3.38 0.935,1.789 0.436,4.578 -0.259,5.612 -5.643,8.395 -17.986,-5.08 -5.57,-8.992 z"
   style="fill:#020202"
   id="path79" />
    </g>
    
    
    
    <g
   transform="matrix(1.375,0,0,1.375,-501.41839,-295.91404)"
   id="g83">
        <path
   d="m 413.078,299.544 c 0.813,-8.817 7.903,-6.203 9.364,-4.973 7.311,6.152 -5.894,16.995 -9.364,4.973 z"
   style="fill:#020202"
   id="path83" />
    </g>
    
    
    
    
    <g
   transform="matrix(1.375,0,0,1.375,-501.41839,-295.91404)"
   id="g88">
        <path
   d="m 488.091,237.999 c 7.421,6.958 9.426,7.996 13.774,19.425 -0.902,0.002 -0.45,0.89 -1.365,0.892 -0.102,0 -0.251,0 -0.909,-0.888 -5.806,-7.83 -6.215,-7.375 -14.105,-13.742 0.217,-1.05 0.693,-0.94 0.402,-1.947 -0.408,-1.413 1.944,-3.509 2.203,-3.74 z"
   style="fill:#f39a88"
   id="path88" />
    </g>
    <g
   transform="matrix(1.375,0,0,1.375,-501.41839,-295.91404)"
   id="g89">
        <path
   d="m 423.203,261.506 0.546,2.985 c 0.712,2.165 1.425,4.33 2.137,6.495 -4.826,2.626 -4.798,2.604 -5.212,2.836 -2.606,1.458 -2.474,1.554 -5.043,2.991 -2.675,-4.625 -1.239,-4.968 -2.306,-10.256 l 1.175,0.416 c 4.308,-1.446 4.753,-0.823 7.602,-4.473 z"
   style="fill:#f5ceba"
   id="path89" />
    </g>
    
    
    
    
    
    
    <g
   transform="matrix(1.375,0,0,1.375,-501.41839,-295.91404)"
   id="g96">
        <path
   d="m 440.501,312.07 c 6.691,-1.293 6.327,-7.994 8.661,-4.324 2.943,4.626 -11.665,14.096 -17.241,2.56 -1.305,-2.698 1.108,-3.963 2.469,-2.679 2.506,2.364 1.766,3.578 6.111,4.443 z"
   style="fill:#050505"
   id="path96" />
    </g>
    
    <g
   transform="matrix(1.375,0,0,1.375,-501.41839,-295.91404)"
   id="g98">
        <path
   d="m 432.671,259.547 c -0.044,5.578 -0.649,5.558 -0.382,5.953 0.235,0.345 0.977,-0.027 1.211,0.318 l 1,-0.56 1.05,1.422 c -4.979,1.981 -4.755,2.288 -9.664,4.306 -0.712,-2.165 -1.425,-4.33 -2.137,-6.495 3.209,-4.381 3.617,-4.116 8.922,-4.944 z"
   style="fill:#f48169"
   id="path98" />
    </g>
    
    <g
   transform="matrix(1.375,0,0,1.375,-501.41839,-295.91404)"
   id="g100">
        <path
   d="m 455.77,254.669 c -1.233,6.914 -1.205,6.906 -1.346,7.347 -2.262,0.288 -4.524,0.577 -6.786,0.865 -0.585,-1.707 -0.429,-1.699 -1.052,-6.367 3.698,-3.317 4.262,-1.817 9.184,-1.845 z"
   style="fill:#f4846d"
   id="path100" />
    </g>
    <g
   transform="matrix(1.375,0,0,1.375,-501.41839,-295.91404)"
   id="g101">
        <path
   d="m 499.404,270.257 c 3.587,-1.979 4.232,-2.165 5.618,-0.367 4.683,6.074 4.435,6.175 6.872,13.516 -0.376,0.237 -1.824,3.742 -4.16,-1.008 -1.157,-2.353 -2.8,-6.394 -3.029,-6.956 -0.12,-0.297 -0.103,-0.639 -0.233,-0.932 -1.728,-3.891 -2.605,-3.013 -2.972,-3.193 l -1,0.283 z"
   style="fill:#eb714a"
   id="path101" />
    </g>
    <g
   transform="matrix(1.375,0,0,1.375,-501.41839,-295.91404)"
   id="g102">
        <path
   d="m 479.709,232.073 c 0.691,0.444 4.4,2.826 8.382,5.926 -0.259,0.231 -2.611,2.327 -2.203,3.74 0.291,1.007 -0.185,0.897 -0.402,1.947 -2.912,-1.664 -2.836,-1.582 -5.626,-3.493 -0.169,-0.522 -1.859,-5.731 -1.4,-6.706 0.268,-0.569 0.981,-0.845 1.249,-1.414 z"
   style="fill:#fce3d7"
   id="path102" />
    </g>
    
    
    
    
    
    
    <g
   transform="matrix(1.375,0,0,1.375,-501.41839,-295.91404)"
   id="g109">
        <path
   d="m 397.432,318.546 c 0.664,0.843 5.126,5.245 1.018,5.658 -1.911,0.192 -4.73,-2.207 -4.914,-4.706 -0.008,-0.106 0.488,-5.361 3.896,-0.952 z"
   style="fill:#d6d5ca"
   id="path109" />
    </g>
    
    
    
    
    
    
    <g
   transform="matrix(1.375,0,0,1.375,-501.41839,-295.91404)"
   id="g116">
        <path
   d="m 470.543,272.875 c 0.506,0.076 5.08,0.764 5.279,3.614 0.336,4.809 -12.186,-0.706 -5.279,-3.614 z"
   style="fill:#dfdcd5"
   id="path116" />
    </g>
    
    
    
    
    
    <g
   transform="matrix(1.375,0,0,1.375,-501.41839,-295.91404)"
   id="g122">
        <path
   d="m 492.614,308.585 c -2.913,3.13 -5.547,1.003 -3.634,-2.827 1.197,-2.396 2.828,-3.764 4.288,-2.072 1.253,1.452 -0.463,4.553 -0.654,4.899 z"
   style="fill:#d8d6cd"
   id="path122" />
    </g>
    <g
   transform="matrix(1.375,0,0,1.375,-501.41839,-295.91404)"
   id="g123">
        <path
   d="m 482.411,322.162 c -7.079,0.741 -2.942,-3.118 -2.666,-3.317 4.857,-3.505 5.705,-1.929 5.937,-1.498 1.433,2.662 -2.848,4.621 -3.271,4.815 z"
   style="fill:#d7d7ce"
   id="path123" />
    </g>
    
    
    
    
    
    
    
    
    
    
    
    <g
   transform="matrix(1.375,0,0,1.375,-501.41839,-295.91404)"
   id="g135">
        <path
   d="m 488.2,280.699 c 2.974,7.649 -2.341,5.957 -2.894,4.954 -0.957,-1.738 -2.753,-9.475 2.894,-4.954 z"
   style="fill:#dcdad2"
   id="path135" />
    </g>
    <g
   transform="matrix(1.375,0,0,1.375,-501.41839,-295.91404)"
   id="g136">
        <path
   d="m 422.606,326.315 c 5.894,5.676 -6.241,4.652 -5.718,0.208 0.304,-2.584 5.299,-0.391 5.718,-0.208 z"
   style="fill:#dbdad1"
   id="path136" />
    </g>
    
    
    <g
   transform="matrix(1.375,0,0,1.375,-501.41839,-295.91404)"
   id="g139">
        <path
   d="m 387.007,293.759 c 2.31,7.5 -2.821,3.576 -3.078,3.32 -2.977,-2.974 -0.412,-9.253 2.1,-5.292 0.094,0.149 0.072,0.147 0.978,1.972 z"
   style="fill:#dbdbd1"
   id="path139" />
    </g>
    
    
    
    <g
   transform="matrix(1.375,0,0,1.375,-501.41839,-295.91404)"
   id="g143">
        <path
   d="m 394.007,306.45 c -2.283,6.624 -5.943,3.629 -5.333,1.102 0.24,-0.999 4.377,-8.17 5.333,-1.102 z"
   style="fill:#ddded6"
   id="path143" />
    </g>
    
    
    
    
    
    
    
    
    
    
    
    
    
</svg>
