<?xml version="1.0" encoding="UTF-8" standalone="no"?>
<svg
   width="202.15523"
   height="173.84583"
   viewBox="0 0 202.15522 173.84582"
   version="1.1"
   xml:space="preserve"
   style="clip-rule:evenodd;fill-rule:evenodd;stroke-linejoin:round;stroke-miterlimit:2"
   id="svg156"
   sodipodi:docname="squid.svg"
   inkscape:version="1.4.3 (0d15f75042, 2025-12-25)"
   xmlns:inkscape="http://www.inkscape.org/namespaces/inkscape"
   xmlns:sodipodi="http://sodipodi.sourceforge.net/DTD/sodipodi-0.dtd"
   xmlns="http://www.w3.org/2000/svg"
   xmlns:svg="http://www.w3.org/2000/svg"><defs
   id="defs156" /><sodipodi:namedview
   id="namedview156"
   pagecolor="#ffffff"
   bordercolor="#000000"
   borderopacity="0.25"
   inkscape:showpageshadow="2"
   inkscape:pageopacity="0.0"
   inkscape:pagecheckerboard="0"
   inkscape:deskcolor="#d1d1d1"
   inkscape:zoom="0.01"
   inkscape:cx="1442700"
   inkscape:cy="350750"
   inkscape:window-width="2556"
   inkscape:window-height="1370"
   inkscape:window-x="0"
   inkscape:window-y="68"
   inkscape:window-maximized="1"
   inkscape:current-layer="svg156"><inkscape:page
     x="-5.3002489e-25"
     y="0"
     width="202.15523"
     height="173.84583"
     id="page1"
     margin="0"
     bleed="0" /></sodipodi:namedview>
    
    
    
    
    <g
   transform="matrix(1.375,0,0,1.375,-924.21038,-297.2364)"
   id="g5"
   inkscape:export-filename="squid.svg"
   inkscape:export-xdpi="96"
   inkscape:export-ydpi="96">
        <path
   d="m 672.153,259.496 c 0.116,-1.001 0.036,-2.018 0.152,-3.018 3.524,-30.417 58.052,-49.064 103.247,-36.16 23.802,6.796 57.104,38.314 37.893,52.1 -6.026,4.325 1.069,6.076 -0.221,13.041 -0.769,4.146 -1.704,4.196 -0.09,8.192 2.308,5.714 -1.621,5.708 -1.031,11.897 0.723,7.596 -4.088,6.415 -4.743,13.936 -0.634,7.279 -5.425,5.716 -9.161,10.806 -3.575,4.871 -9.124,3.146 -10.506,4.427 -5.012,4.643 -5.576,3.829 -11.218,3.26 -1.602,-0.162 -2.809,2.764 -8.951,2.333 -3.637,-0.256 -3.674,-0.33 -6.972,1.304 -5.446,2.699 -11.812,-2.048 -13.984,-0.98 -7.257,3.57 -7.564,1.429 -12.119,0.254 -3.236,-0.834 -3.785,3.975 -11.919,-0.44 -2.529,-1.373 -6.072,1.174 -9.841,-1.254 -5.592,-3.602 -7.512,0.936 -12.173,-3.711 -2.905,-2.897 -3.67,-1.683 -6.839,-4.211 -3.07,-2.45 -2.586,-3.038 -6.29,-4.511 -6.557,-2.608 -2.654,-6.812 -7.491,-12.628 -5.044,-6.065 0.164,-9.055 -2.514,-13.559 -3.344,-5.623 0.696,-9.54 0.258,-11.106 -1.569,-5.605 -1.968,-5.785 0.39,-11.166 1.253,-2.859 -4.894,-3.595 -5.877,-18.806 z"
   style="fill:#040504"
   id="path5" />
    </g>
    
    <g
   transform="matrix(1.375,0,0,1.375,-924.21038,-297.2364)"
   id="g7">
        <path
   d="m 771.503,269.145 c 13.233,1.061 13.114,1.267 26.07,3.998 5.542,1.168 8.638,-1.249 8.276,4.363 -0.109,1.699 5.528,5.235 2.453,9.867 -2.016,3.036 -2.359,3.51 0.07,6.24 3.671,4.124 -2.192,7.471 -1.445,9.773 1.811,5.584 1.805,6.5 -3.181,9.565 -2.382,1.464 2.125,9.208 -4.218,10.648 -3.068,0.697 -2.959,1.008 -4.308,3.763 -2.579,5.267 -8.185,-0.438 -10.314,3.33 -4.615,8.166 -7.424,1.002 -10.244,2.261 -0.917,0.409 -3.902,5.301 -7.951,3.139 -3.307,-1.765 -3.603,-1.257 -6.465,1.071 -6.14,4.992 -10.694,-4.758 -14.84,-0.757 -6.221,6.003 -9.326,-2.604 -12.92,0.078 -7.477,5.58 -7.631,-1.869 -10.943,-1.64 -2.845,0.198 -3.99,4.518 -8.491,-0.985 -2.952,-3.609 -6.391,2.925 -10.127,-1.732 -2.117,-2.639 -2.387,-2.269 -5.522,-3.376 -3.007,-1.062 -2.045,-4.638 -4.932,-4.948 -10.195,-1.097 -2.668,-8.671 -7.09,-11.025 -8.804,-4.685 1.286,-8.997 -2.059,-12.094 -4.075,-3.771 -3.933,-4.724 -0.868,-9.222 1.824,-2.677 -4.953,-8.645 -1.029,-10.091 3.454,-1.273 10.204,11.66 37.071,2.116 22.351,-7.939 27.751,-13.226 53.007,-14.342 z"
   style="fill:#fdfdfd"
   id="path7" />
    </g>
    
    
    
    <g
   transform="matrix(1.375,0,0,1.375,-924.21038,-297.2364)"
   id="g11">
        <path
   d="m 814.983,259.426 c 1.674,19.682 -20.53,6.311 -40.478,5.879 -46.087,-0.997 -67.663,32.181 -91.594,10.752 -9.806,-8.781 -17.2,-43.819 46.531,-54.894 14.418,-2.506 41.535,-0.697 56.795,7.822 9.243,5.16 25.593,17.871 28.746,30.441 z"
   style="fill:#e9edeb"
   id="path11" />
    </g>
    
    
    
    
    
    
    
    
    
    
    
    
    
    
    
    <g
   transform="matrix(1.375,0,0,1.375,-924.21038,-297.2364)"
   id="g27">
        <path
   d="m 771.725,232.419 c -0.33,-0.297 -4.931,-4.431 -2.283,-5.059 2.773,-0.658 7.937,7.09 8.016,7.179 1.534,1.708 13.156,3.067 13.002,5.958 -0.034,0.646 -0.328,2.062 -8.065,-0.585 -3.684,-1.261 -0.99,5.039 -0.816,7.586 0.242,3.512 -2.889,4.56 -3.356,1.056 -0.181,-1.357 -0.268,-2.726 -0.479,-4.078 -0.805,-5.17 -0.91,-7.536 -17.242,-8.623 -3.948,-0.263 3.639,12.673 0.669,15.309 -3.055,2.711 -1.323,-1.887 -5.499,-12.728 -0.359,-0.933 -0.081,-4.602 -19.311,-1.367 -2.501,0.421 -1.362,2.138 -1.156,2.539 0.582,1.133 6.598,12.843 3.853,15.445 -3.416,3.239 -4.022,-13.374 -8.783,-16.188 -1.82,-1.075 -17.63,5.591 -19.521,6.927 -1.892,1.337 6.419,13.058 4.539,16.59 -2.407,4.521 -4.098,-6.732 -7.215,-11.613 -3.608,-5.649 -12.399,6.947 -15.548,6.546 -5.503,-0.7 6.898,-8.724 7.706,-9.248 7.813,-5.056 -6.064,-5.101 -5.966,-8.589 0.027,-0.966 1.346,-4.01 11.561,3.534 1.827,1.349 8.822,-3.465 16.846,-6.071 9.41,-3.057 -2.157,-5.025 -4.029,-6.635 -3.087,-2.655 2.08,-4.771 9.633,1.469 4.895,4.045 5.638,1.605 18.216,0.653 9.868,-0.746 -1.449,-4.392 -2.547,-6.155 -2.191,-3.522 4.541,-2.587 9.094,2.631 2.743,3.143 2.945,3.648 18.408,4.545 0.091,-0.343 0.182,-0.686 0.273,-1.028 z"
   style="fill:#d1cec6"
   id="path27" />
    </g>
    
    
    
    
    
    
    
    
    
    
    
    
    
    
    
    
    
    
    
    
    
    
    
    
    
    
    
    
    
    
    
    
    
    
    
    
    
    
    
    <g
   transform="matrix(1.375,0,0,1.375,-924.21038,-297.2364)"
   id="g67">
        <path
   d="m 713.438,315.617 c -6.585,-5.806 3.443,-9.202 9.131,-7.326 7.029,2.318 3.717,11.588 -9.131,7.326 z"
   style="fill:#f3a3a3"
   id="path67" />
    </g>
    
    
    
    
    
    
    <g
   transform="matrix(1.375,0,0,1.375,-924.21038,-297.2364)"
   id="g74">
        <path
   d="m 770.532,308.58 c 0.958,-0.218 10.717,-2.439 11.931,2.928 2.067,9.133 -24.26,4.948 -11.931,-2.928 z"
   style="fill:#f2a6a5"
   id="path74" />
    </g>
    
    
    
    
    
    <g
   transform="matrix(1.375,0,0,1.375,-924.21038,-297.2364)"
   id="g80">
        <path
   d="m 768.498,293.125 c 0.482,0.101 4.131,0.864 5.228,3.26 1.343,2.931 -0.079,5.479 -0.45,5.948 -6.721,8.487 -17.325,-6.464 -4.778,-9.208 z"
   style="fill:#010101"
   id="path80" />
    </g>
    
    
    
    
    
    
    <g
   transform="matrix(1.375,0,0,1.375,-924.21038,-297.2364)"
   id="g87">
        <path
   d="m 731.038,300.391 c -5.459,11.892 -16.616,-2.4 -8.311,-6.444 2.075,-1.011 8.732,-1.802 8.311,6.444 z"
   style="fill:#020201"
   id="path87" />
    </g>
    
    
    
    
    
    
    <g
   transform="matrix(1.375,0,0,1.375,-924.21038,-297.2364)"
   id="g94">
        <path
   d="m 747.457,312.063 c 4.051,-1.234 3.54,-2.013 5.337,-4.277 0.986,-1.244 4.195,-0.797 2.777,2.745 -3.888,9.714 -19.04,3.688 -17.539,-2.165 1.4,-5.459 2.512,2.812 9.425,3.697 z"
   style="fill:#030303"
   id="path94" />
    </g>
    
    
    
    
    
    
    
    
    
    
    
    
    
    
    
    
    
    
    
    <g
   transform="matrix(1.375,0,0,1.375,-924.21038,-297.2364)"
   id="g114">
        <path
   d="m 703.695,318.345 c 0.679,0.731 5.574,5.223 0.785,5.736 -5.153,0.552 -6.166,-11.086 -0.785,-5.736 z"
   style="fill:#d9d6ce"
   id="path114" />
    </g>
    
    
    
    <g
   transform="matrix(1.375,0,0,1.375,-924.21038,-297.2364)"
   id="g118">
        <path
   d="m 800.1,306.417 c -3.087,7.377 -5.891,2.532 -5.476,1.132 0.992,-3.342 5.832,-7.998 5.476,-1.132 z"
   style="fill:#dddbd2"
   id="path118" />
    </g>
    
    
    
    
    
    
    <g
   transform="matrix(1.375,0,0,1.375,-924.21038,-297.2364)"
   id="g125">
        <path
   d="m 726.391,324.982 c 0.42,0.225 7.375,3.94 2.971,5.163 -3.97,1.103 -10.462,-4.819 -2.971,-5.163 z"
   style="fill:#d7d7cd"
   id="path125" />
    </g>
    
    <g
   transform="matrix(1.375,0,0,1.375,-924.21038,-297.2364)"
   id="g127">
        <path
   d="m 789.66,316.864 c 8.782,-1.079 -1.281,8.406 -4.103,4.602 -0.778,-1.049 3.704,-4.312 4.103,-4.602 z"
   style="fill:#dad8ce"
   id="path127" />
    </g>
    
    
    
    
    
    <g
   transform="matrix(1.375,0,0,1.375,-924.21038,-297.2364)"
   id="g133">
        <path
   d="m 791.687,283.422 c -0.999,-6.349 4.116,-3.352 4.854,0.071 0.081,0.38 -1.054,8.348 -4.854,-0.071 z"
   style="fill:#dbd9d0"
   id="path133" />
    </g>
    
    
    
    <g
   transform="matrix(1.375,0,0,1.375,-924.21038,-297.2364)"
   id="g137">
        <path
   d="m 779.586,279.343 c -3.338,-1.793 -5.933,-2.228 -2.963,-4.671 3.719,-3.06 10.729,7.504 2.963,4.671 z"
   style="fill:#dedcd4"
   id="path137" />
    </g>
    <g
   transform="matrix(1.375,0,0,1.375,-924.21038,-297.2364)"
   id="g138">
        <path
   d="m 691.409,297.729 c -0.443,-0.349 -5.148,-4.067 -1.633,-6.863 1.705,-1.356 8.373,6.48 1.633,6.863 z"
   style="fill:#deddd6"
   id="path138" />
    </g>
    
    
    
    <g
   transform="matrix(1.375,0,0,1.375,-924.21038,-297.2364)"
   id="g142">
        <path
   d="m 700.29,307.451 c -3.328,6.968 -5.614,1.529 -5.075,-0.044 0.969,-2.826 5.677,-6.958 5.075,0.044 z"
   style="fill:#ddddd7"
   id="path142" />
    </g>
    
    
    
    
    
    
    
    
    
    
    
    
    
    
</svg>
