<?xml version="1.0" encoding="UTF-8" standalone="no"?>
<svg
   width="204.77586"
   height="173.2581"
   viewBox="0 0 204.77587 173.2581"
   version="1.1"
   xml:space="preserve"
   style="clip-rule:evenodd;fill-rule:evenodd;stroke-linejoin:round;stroke-miterlimit:2"
   id="svg156"
   sodipodi:docname="tuna.svg"
   xmlns:inkscape="http://www.inkscape.org/namespaces/inkscape"
   xmlns:sodipodi="http://sodipodi.sourceforge.net/DTD/sodipodi-0.dtd"
   xmlns="http://www.w3.org/2000/svg"
   xmlns:svg="http://www.w3.org/2000/svg"><defs
   id="defs156" /><sodipodi:namedview
   id="namedview156"
   pagecolor="#ffffff"
   bordercolor="#000000"
   borderopacity="0.25"
   inkscape:showpageshadow="2"
   inkscape:pageopacity="0.0"
   inkscape:pagecheckerboard="0"
   inkscape:deskcolor="#d1d1d1"><inkscape:page
     x="0.002394163"
     y="0.00432233"
     width="204.77586"
     height="173.2581"
     id="page2"
     margin="0"
     bleed="0" /></sodipodi:namedview>
    
    
    <g
   transform="matrix(1.375,0,0,1.375,-76.130929,-297.70812)"
   id="g3">
        <path
   d="m 66.908,318.486 c -0.294,-2.47 -0.414,-2.406 -2.157,-4.221 -5.429,-5.656 0.258,-7.659 -3.308,-14.737 -2.302,-4.568 1.222,-8.62 0.831,-9.99 -1.274,-4.463 -1.78,-4.438 -0.834,-9.053 0.375,-1.828 -6.856,-9.909 -6.002,-19.988 4.687,-55.315 126.08,-57.52 145.765,-11.871 8.775,20.349 -3.935,29.735 -3.702,31.874 0.5,4.587 0.472,4.603 -1.008,8.998 -1.169,3.472 4.573,3.896 0.373,12.197 -1.649,3.26 2.222,6.755 -2.755,12.433 -4.696,5.356 -0.919,9.793 -6.558,12.466 -7.023,3.33 -5.285,7.169 -13.06,7.474 -2.883,0.113 -2.158,1.56 -5.077,3.277 -5.045,2.967 -6.1,-1.074 -11.066,1.896 -4.192,2.507 -8.068,-0.429 -10.929,1.122 -0.84,0.455 -6.606,3.58 -11.896,1.085 -6.648,-3.136 -7.27,3.105 -14.15,0.353 -4.285,-1.713 -4.285,0.987 -8.872,0.609 -5.242,-0.432 -4.865,-2.871 -10.027,-2.12 -4.071,0.592 -6.282,-2.978 -8.968,-2.727 -8.396,0.785 -7.239,-2.838 -11.178,-4.603 -3.459,-1.55 -3.597,-1.307 -6.167,-4.188 -3.287,-3.686 -7.633,-0.498 -9.255,-10.286 z"
   style="fill:#090403"
   id="path3" />
    </g>
    
    
    
    
    
    
    <g
   transform="matrix(1.375,0,0,1.375,-76.130929,-297.70812)"
   id="g10">
        <path
   d="m 119.431,275.118 c 2.98,-0.478 17.402,-4.611 45.143,4.162 25.89,8.188 26.899,2.031 28.734,3.442 3.113,2.394 -4.942,6.519 -1.125,10.12 4.848,4.574 -0.819,7.853 -0.908,9.645 -0.168,3.421 4.982,5.519 -2.592,10.336 -3.195,2.031 2.095,9.453 -5.135,10.92 -5.836,1.183 -3.266,7.257 -9.113,6.112 -3.645,-0.713 -4.09,-0.57 -5.893,2.675 -2.602,4.684 -7.958,-0.967 -10.067,0.943 -3.869,3.505 -4.436,3.705 -9.116,1.358 -3.483,-1.746 -5.514,8.476 -15.114,0.99 -3.551,-2.769 -5.202,4.239 -10.675,2.446 -3.875,-1.269 -4.111,-3.648 -7.278,-1.026 -4.832,4.001 -8.131,-3.279 -10.94,-2.133 -4.252,1.735 -4.774,1.747 -7.988,-1.485 -3.051,-3.069 -6.004,3.704 -10.499,-2.379 -2.633,-3.562 -4.485,-1.011 -6.433,-3.685 -1.972,-2.707 -1.618,-3.375 -4.958,-3.889 -7.077,-1.088 -2.259,-9.198 -5.147,-10.809 -5.217,-2.909 -5.02,-4.306 -2.053,-9.478 1.302,-2.27 -2.313,-4.101 -2.717,-4.915 -2.167,-4.372 1.972,-7.104 2.135,-7.916 0.431,-2.144 -7.921,-9.989 0.984,-6.546 15.093,5.834 22.052,-2.849 50.755,-8.888 z"
   style="fill:#fdfdfd"
   id="path10" />
    </g>
    
    
    
    
    
    
    
    
    
    
    
    
    
    <g
   transform="matrix(1.375,0,0,1.375,-76.130929,-297.70812)"
   id="g24">
        <path
   d="m 133.456,219.99 c 11.684,0.881 14.857,1.447 23.08,3.292 -0.265,0.205 -0.717,-0.42 -0.983,-0.215 -0.391,0.302 0.119,0.856 -3.355,2.949 -9.162,5.518 -18.443,12.645 -29.388,34.543 -0.496,0.023 -0.815,-0.729 -1.31,-0.706 -0.827,0.039 -0.581,0.798 -9.916,2.946 -3.635,0.837 -3.499,0.946 -5.179,1.394 -4.206,1.124 -4.004,-0.349 -4.726,-0.601 0.285,-0.835 2.045,-6.907 5.926,-15.038 9.568,-20.045 24.231,-26.498 24.51,-27.054 0.231,-0.459 0.108,-1.091 0.449,-1.475 0.198,-0.223 0.695,0.187 0.892,-0.035 z"
   style="fill:#fb7b2a"
   id="path24" />
    </g>
    <g
   transform="matrix(1.375,0,0,1.375,-76.130929,-297.70812)"
   id="g25">
        <path
   d="m 121.489,220.319 1.162,1.181 c -0.204,0.465 1.351,0.535 1.148,1 -0.126,0.285 -10.147,8.648 -14.873,16.282 -4.925,7.954 -5.701,11.078 -12.945,28.838 -0.493,0.159 -0.989,-0.622 -1.481,-0.464 -2.294,0.738 -1.645,1.855 -3.941,2.495 -4.506,1.256 -4.447,1.218 -8.987,2.086 -0.264,0.05 -1.321,0.253 -3.326,-0.453 0.476,-1.307 4.309,-12.246 4.45,-12.699 10.5,-33.712 18.914,-30.293 17.8,-33.085 -0.21,-0.526 -0.868,-0.789 -1.078,-1.315 11.597,-3.017 15.872,-3.156 22.071,-3.866 z"
   style="fill:#fa7a29"
   id="path25" />
    </g>
    <g
   transform="matrix(1.375,0,0,1.375,-76.130929,-297.70812)"
   id="g26">
        <path
   d="m 163.59,225.22 c 8.276,3.127 8.258,2.931 16.007,7.104 -3.157,6.079 -5.427,3.466 -14.792,10.57 -8.898,6.748 -13.657,15.554 -15.052,17.681 L 148.38,259.5 c -0.484,0.051 -0.396,1.115 -0.88,1.166 -1.274,0.134 -1.248,-0.336 -15.988,-0.979 -2.784,-0.122 -2.361,-1.023 -3.471,-1.504 9.263,-18.866 23.375,-28.234 29.424,-30.789 5.526,-2.335 5.649,-1.966 6.125,-2.174 z"
   style="fill:#fb7a29"
   id="path26" />
    </g>
    
    
    <g
   transform="matrix(1.375,0,0,1.375,-76.130929,-297.70812)"
   id="g29">
        <path
   d="m 91.321,227.075 c 0.039,0.57 0.918,0.854 0.957,1.425 0.185,2.754 -5.921,5.242 -12.479,27.063 -1.837,6.113 -1.946,7.796 -5.913,15.957 -2.081,4.376 -1.648,4.635 -5.32,7.881 -4.311,-3.054 -6.255,-4.112 -8.665,-12.974 1.594,-2.151 5.387,-5.314 8.648,-14.905 0.325,-0.958 4.01,-11.798 3.911,-12.022 -0.198,-0.448 -0.814,-0.618 -1.012,-1.067 9.471,-7.761 15.549,-9.722 19.873,-11.358 z"
   style="fill:#f87728"
   id="path29" />
    </g>
    <g
   transform="matrix(1.375,0,0,1.375,-76.130929,-297.70812)"
   id="g30">
        <path
   d="m 185.703,236.246 c 4.995,4.161 4.83,4.21 8.946,9.132 -3.325,5.536 -10.353,3.025 -19.783,18.381 -1.191,1.94 -1.163,1.824 -2.382,3.734 -0.857,-0.226 -0.127,-0.983 -0.984,-1.209 -0.681,-0.18 -0.286,0.759 -1,0.686 -0.789,-0.082 -1.412,-0.733 -2.155,-1.012 -3.174,-1.191 -9.706,-1.398 -13.295,-4.458 l -0.845,-1.208 c 5.184,-7.682 6.395,-10.138 16.964,-17.256 0.838,-0.564 7.349,-4.949 11.305,-5.625 1.751,-0.3 1.595,-0.576 3.229,-1.165 z"
   style="fill:#fb7a29"
   id="path30" />
    </g>
    <g
   transform="matrix(1.375,0,0,1.375,-76.130929,-297.70812)"
   id="g31">
        <path
   d="m 197.642,250.439 c 0.696,1.693 5.603,13.62 -0.397,22.888 -7.76,11.987 -25.969,3.808 -27.765,3.274 3.891,-4.688 4.017,-4.513 7.681,-9.377 3.533,-5.85 3.472,-5.838 3.816,-6.318 3.566,-4.988 12.42,-10.032 14.49,-9.882 1.171,0.084 1,-0.269 2.175,-0.585 z"
   style="fill:#f67125"
   id="path31" />
    </g>
    
    
    
    
    
    
    <g
   transform="matrix(1.375,0,0,1.375,-76.130929,-297.70812)"
   id="g38">
        <path
   d="m 133.456,219.99 c -0.197,0.222 -0.694,-0.188 -0.892,0.035 -0.341,0.384 -0.218,1.016 -0.449,1.475 -0.279,0.556 -14.942,7.009 -24.51,27.054 -3.881,8.131 -5.641,14.203 -5.926,15.038 -5.22,11.157 -6.133,11.07 -5.502,11.908 0.131,0.174 0.179,0.092 2.416,1.245 -3.001,1.041 -6.002,2.082 -9.003,3.124 -0.657,-1.845 -0.823,-1.864 -0.707,-1.987 2.716,-2.896 3.225,-2.498 7.098,-10.262 7.244,-17.76 8.02,-20.884 12.945,-28.838 4.726,-7.634 14.747,-15.997 14.873,-16.282 0.203,-0.465 -1.352,-0.535 -1.148,-1 l -1.162,-1.181 c 3.982,-0.037 11.01,-0.294 11.967,-0.329 z"
   style="fill:#fba971"
   id="path38" />
    </g>
    
    
    
    
    <g
   transform="matrix(1.375,0,0,1.375,-76.130929,-297.70812)"
   id="g43">
        <path
   d="m 156.536,223.282 c 2.352,0.646 4.703,1.292 7.054,1.938 -0.476,0.208 -0.599,-0.161 -6.125,2.174 -6.049,2.555 -20.161,11.923 -29.424,30.789 -5.294,9.431 -5.613,9.46 -5.261,10.317 0.077,0.188 0.126,0.139 1.71,1.88 -4.544,0.524 -4.474,0.531 -8.948,1.396 0.029,-0.054 0.071,-1.143 1.132,-2.087 3.193,-2.843 4.449,-6.174 6.136,-9.13 10.945,-21.898 20.226,-29.025 29.388,-34.543 3.474,-2.093 2.964,-2.647 3.355,-2.949 0.266,-0.205 0.718,0.42 0.983,0.215 z"
   style="fill:#fca971"
   id="path43" />
    </g>
    
    <g
   transform="matrix(1.375,0,0,1.375,-76.130929,-297.70812)"
   id="g45">
        <path
   d="m 99.418,224.185 c 0.21,0.526 0.868,0.789 1.078,1.315 1.114,2.792 -7.3,-0.627 -17.8,33.085 -0.141,0.453 -3.974,11.392 -4.45,12.699 -0.386,0.644 -4.691,7.819 -4.532,8.216 0.083,0.205 0.132,0.157 1.773,2.121 -3.6,-0.751 -3.561,-0.603 -6.921,-2.22 3.672,-3.246 3.239,-3.505 5.32,-7.881 3.967,-8.161 4.076,-9.844 5.913,-15.957 6.558,-21.821 12.664,-24.309 12.479,-27.063 -0.039,-0.571 -0.918,-0.855 -0.957,-1.425 2.699,-0.964 5.398,-1.927 8.097,-2.89 z"
   style="fill:#fca970"
   id="path45" />
    </g>
    <g
   transform="matrix(1.375,0,0,1.375,-76.130929,-297.70812)"
   id="g46">
        <path
   d="m 128.041,258.183 c 1.11,0.481 0.687,1.382 3.471,1.504 14.74,0.643 14.714,1.113 15.988,0.979 0.484,-0.051 0.396,-1.115 0.88,-1.166 l 1.373,1.075 c -1.588,2.398 -2.194,4.92 -8.223,9.649 -8.589,-0.301 -8.488,-0.258 -17.04,0.156 -1.584,-1.741 -1.633,-1.692 -1.71,-1.88 -0.352,-0.857 -0.033,-0.886 5.261,-10.317 z"
   style="fill:#f5651d"
   id="path46" />
    </g>
    
    <g
   transform="matrix(1.375,0,0,1.375,-76.130929,-297.70812)"
   id="g48">
        <path
   d="m 122.81,260.559 c -1.687,2.956 -2.943,6.287 -6.136,9.13 -1.061,0.944 -1.103,2.033 -1.132,2.087 -8.627,2.097 -8.553,2.064 -16.949,4.969 -2.237,-1.153 -2.285,-1.071 -2.416,-1.245 -0.631,-0.838 0.282,-0.751 5.502,-11.908 0.722,0.252 0.52,1.725 4.726,0.601 1.68,-0.448 1.544,-0.557 5.179,-1.394 9.335,-2.148 9.089,-2.907 9.916,-2.946 0.495,-0.023 0.814,0.729 1.31,0.706 z"
   style="fill:#f6631a"
   id="path48" />
    </g>
    
    
    
    <g
   transform="matrix(1.375,0,0,1.375,-76.130929,-297.70812)"
   id="g52">
        <path
   d="m 179.597,232.324 c 1.603,0.938 1.544,0.948 6.106,3.922 -1.634,0.589 -1.478,0.865 -3.229,1.165 -3.956,0.676 -10.467,5.061 -11.305,5.625 -10.569,7.118 -11.78,9.574 -16.964,17.256 -3.402,5.317 -3.321,5.295 -6.706,10.549 -1.99,-0.206 -3.979,-0.411 -5.969,-0.617 6.029,-4.729 6.635,-7.251 8.223,-9.649 1.395,-2.127 6.154,-10.933 15.052,-17.681 9.365,-7.104 11.635,-4.491 14.792,-10.57 z"
   style="fill:#fdab72"
   id="path52" />
    </g>
    
    
    
    
    <g
   transform="matrix(1.375,0,0,1.375,-76.130929,-297.70812)"
   id="g57">
        <path
   d="m 154.205,260.292 0.845,1.208 c 3.589,3.06 10.121,3.267 13.295,4.458 0.743,0.279 1.366,0.93 2.155,1.012 0.714,0.073 0.319,-0.866 1,-0.686 0.857,0.226 0.127,0.983 0.984,1.209 -1.383,1.658 -3.202,5.077 -9.091,7.281 -5.816,-1.755 -13.183,-3.314 -15.894,-3.933 3.385,-5.254 3.304,-5.232 6.706,-10.549 z"
   style="fill:#f5631b"
   id="path57" />
    </g>
    
    
    <g
   transform="matrix(1.375,0,0,1.375,-76.130929,-297.70812)"
   id="g60">
        <path
   d="m 95.981,267.62 c -3.873,7.764 -4.382,7.366 -7.098,10.262 -0.116,0.123 0.05,0.142 0.707,1.987 -6.974,1.758 -6.935,1.793 -14.103,1.752 -1.641,-1.964 -1.69,-1.916 -1.773,-2.121 -0.159,-0.397 4.146,-7.572 4.532,-8.216 2.005,0.706 3.062,0.503 3.326,0.453 4.54,-0.868 4.481,-0.83 8.987,-2.086 2.296,-0.64 1.647,-1.757 3.941,-2.495 0.492,-0.158 0.988,0.623 1.481,0.464 z"
   style="fill:#f5661c"
   id="path60" />
    </g>
    <g
   transform="matrix(1.375,0,0,1.375,-76.130929,-297.70812)"
   id="g61">
        <path
   d="m 194.649,245.378 c 1.664,2.52 1.607,2.463 2.993,5.061 -1.175,0.316 -1.004,0.669 -2.175,0.585 -2.07,-0.15 -10.924,4.894 -14.49,9.882 -0.344,0.48 -0.283,0.468 -3.816,6.318 -3.664,4.864 -3.79,4.689 -7.681,9.377 -2.029,-0.609 -4.058,-1.218 -6.087,-1.827 5.889,-2.204 7.708,-5.623 9.091,-7.281 1.219,-1.91 1.191,-1.794 2.382,-3.734 9.43,-15.356 16.458,-12.845 19.783,-18.381 z"
   style="fill:#fca66e"
   id="path61" />
    </g>
    
    
    <g
   transform="matrix(1.375,0,0,1.375,-76.130929,-297.70812)"
   id="g64">
        <path
   d="m 71.448,238.433 c 0.198,0.449 0.814,0.619 1.012,1.067 0.099,0.224 -3.586,11.064 -3.911,12.022 -3.261,9.591 -7.054,12.754 -8.648,14.905 -0.508,-9.277 -0.454,-15.861 11.547,-27.994 z"
   style="fill:#f1a06a"
   id="path64" />
    </g>
    
    
    
    
    
    
    
    
    <g
   transform="matrix(1.375,0,0,1.375,-76.130929,-297.70812)"
   id="g73">
        <path
   d="m 98.675,308.821 c 0.918,-0.306 9.489,-3.169 11.984,1.59 4.818,9.19 -23.039,8.13 -11.984,-1.59 z"
   style="fill:#f3a6a3"
   id="path73" />
    </g>
    
    <g
   transform="matrix(1.375,0,0,1.375,-76.130929,-297.70812)"
   id="g75">
        <path
   d="m 165.43,315.389 c -11.735,5.335 -16.942,-4.543 -9.931,-6.891 6.394,-2.141 15.123,0.39 9.931,6.891 z"
   style="fill:#f1a3a2"
   id="path75" />
    </g>
    
    
    
    
    
    <g
   transform="matrix(1.375,0,0,1.375,-76.130929,-297.70812)"
   id="g81">
        <path
   d="m 153.514,293.158 c 13.152,3.321 -0.248,17.446 -5.004,9.335 -4.553,-7.763 4.168,-9.198 5.004,-9.335 z"
   style="fill:#020202"
   id="path81" />
    </g>
    
    
    
    
    <g
   transform="matrix(1.375,0,0,1.375,-76.130929,-297.70812)"
   id="g86">
        <path
   d="m 110.523,293.2 c 12.823,3.756 -0.065,17.068 -4.988,9.274 -0.25,-0.395 -1.925,-3.047 -0.637,-5.807 1.33,-2.852 5.102,-3.392 5.625,-3.467 z"
   style="fill:#020202"
   id="path86" />
    </g>
    
    
    
    
    
    
    <g
   transform="matrix(1.375,0,0,1.375,-76.130929,-297.70812)"
   id="g93">
        <path
   d="m 131.512,312.075 c 6.637,-1.173 5.91,-7.905 8.782,-4.422 3.829,4.643 -12.392,13.833 -17.019,2.948 -1.677,-3.947 1.433,-3.784 2.238,-3.119 2.48,2.049 1.526,3.461 5.999,4.593 z"
   style="fill:#030303"
   id="path93" />
    </g>
    
    
    
    
    
    
    
    
    
    
    
    
    
    
    
    
    
    <g
   transform="matrix(1.375,0,0,1.375,-76.130929,-297.70812)"
   id="g111">
        <path
   d="m 88.442,318.535 c 1.901,2.571 4.636,4.971 1.021,5.571 -1.489,0.247 -4.713,-1.76 -4.996,-4.602 -0.022,-0.222 0.56,-5.437 3.975,-0.969 z"
   style="fill:#dbdbd1"
   id="path111" />
    </g>
    
    
    
    
    
    <g
   transform="matrix(1.375,0,0,1.375,-76.130929,-297.70812)"
   id="g117">
        <path
   d="m 182.654,309.699 c -6.809,3.409 -1.685,-9.577 1.755,-6.115 2.002,2.014 -1.411,5.74 -1.755,6.115 z"
   style="fill:#dcddd5"
   id="path117" />
    </g>
    
    <g
   transform="matrix(1.375,0,0,1.375,-76.130929,-297.70812)"
   id="g119">
        <path
   d="m 111.581,330.126 c -0.425,-0.169 -5.658,-2.245 -3.206,-4.737 2.58,-2.623 12.916,5.524 3.206,4.737 z"
   style="fill:#d9d8cd"
   id="path119" />
    </g>
    
    
    
    
    
    
    
    
    
    
    
    
    <g
   transform="matrix(1.375,0,0,1.375,-76.130929,-297.70812)"
   id="g132">
        <path
   d="m 77.412,292.549 c 3.781,8.272 -2.79,4.37 -3.01,4.033 -2.225,-3.404 -0.366,-9.223 3.01,-4.033 z"
   style="fill:#dbd9cf"
   id="path132" />
    </g>
    
    
    
    
    
    
    
    <g
   transform="matrix(1.375,0,0,1.375,-76.130929,-297.70812)"
   id="g140">
        <path
   d="m 172.691,317.785 c 2.604,-1.037 3.47,-2.74 4.355,-0.097 0.664,1.98 -1.395,3.44 -1.655,3.625 -1.608,1.139 -9.425,1.332 -2.7,-3.528 z"
   style="fill:#dad9d1"
   id="path140" />
    </g>
    
    
    
    <g
   transform="matrix(1.375,0,0,1.375,-76.130929,-297.70812)"
   id="g144">
        <path
   d="m 83.2,310.096 c -8.141,3.003 -0.627,-9.279 1.443,-5.738 1.336,2.284 -1.146,5.369 -1.443,5.738 z"
   style="fill:#dbdbd3"
   id="path144" />
    </g>
    
    
    
    
    
    
    
    
    
    
    
    
</svg>
